<?xml version="1.0" encoding="UTF-8" standalone="no"?><!DOCTYPE svg PUBLIC "-//W3C//DTD SVG 1.1//EN" "http://www.w3.org/Graphics/SVG/1.1/DTD/svg11.dtd"><svg width="100%" height="100%" viewBox="0 0 851 878" version="1.1" xmlns="http://www.w3.org/2000/svg" xmlns:xlink="http://www.w3.org/1999/xlink" xml:space="preserve" xmlns:serif="http://www.serif.com/" style="fill-rule:evenodd;clip-rule:evenodd;stroke-linecap:round;stroke-linejoin:round;stroke-miterlimit:1.5;"><g><path d="M338.956,140.957c26.298,-1.336 54.063,-0.903 82.729,-0.903l0.961,0c37.232,0.021 72.933,-0.662 105.855,2.789l4.823,10.78l8.028,-9.192c83.686,12.026 147.466,56.34 169.414,218.127l-8.571,8.666l10.013,2.635c4.645,38.794 7.011,75.196 6.824,127.911l-594.694,0c-0.172,-48.566 1.823,-81.956 5.77,-118.639l12.566,-11.179l-10.961,-2.586c15.873,-126.104 56.332,-182.991 111.604,-208.589l12.988,-5.359c20.468,-7.483 42.72,-11.368 66.312,-13.367l11.824,11.572l4.515,-12.666Z" style="stroke:#fff;stroke-width:5px;"/><ellipse cx="645.138" cy="277.607" rx="76.039" ry="91.095" style="stroke:#fff;stroke-width:5px;"/><path d="M780.592,187.094c13.638,12.276 24.466,21.743 15.321,36.201c-7.578,11.982 -34.17,12.732 -47.807,0.457c-13.638,-12.275 -18.499,-37.056 -5.622,-44.028c6.931,-3.752 24.471,-4.905 38.108,7.37Z" style="stroke:#fff;stroke-width:5px;"/><ellipse cx="202.502" cy="277.607" rx="76.039" ry="91.095" style="stroke:#fff;stroke-width:5px;"/><path d="M657.045,421.931l-0.711,-6.874l-334.873,0l-14.052,10.765l-0.696,-10.765l-187.809,0l0,48.057l9.731,8.565l-9.731,3.26l0,41.41l120.356,0l1.781,-8.818l10.018,8.818l136.45,0l13.451,-11.857l1.963,11.857l280.371,0l11.635,-11.764l3.236,11.764l30.571,0l0,-74.57l-7.559,-1.989l7.559,-7.643l0,-17.09l-62.175,0l-9.516,6.874Z" style="stroke:#fff;stroke-width:5px;"/><path d="M373.174,198.409l0,-79.359l28.403,0l11.411,15.549l3.981,-15.549l57.497,0l0,117.361l-6.161,3.23l6.161,1.658l0,128.343l-8.983,2.807l8.983,4.762l0,288.913l-6.669,6.525l6.669,-0.373l0,108.797l-29.265,54.27l-9.054,1.056l4.076,8.176l-16.403,30.418l-33.2,-61.568l5.026,-5.862l-7.703,0.898l-14.769,-27.388l0,-44.349l8.711,-7.65l-8.711,-6.74l0,-188.117l8.77,-8.19l-8.77,-4.72l0,-191.893l5.168,-4.656l-5.168,-2.131l0,-117.829l6.088,-7.099l-6.088,0.71Z" style="stroke:#fff;stroke-width:5px;"/><path d="M270.732,667.87l0.616,34.033l2.464,4.921l1.232,3.28l-3.696,64.786l-0.616,2.46l-20.946,-30.343l-9.857,0.82l-0.616,-12.711l-36.348,-39.773l-11.089,-11.891l8.009,-8.201l14.169,-18.042l24.027,-26.242l46.82,-43.874l-0.616,-5.74l21.562,-12.302l14.169,-15.991l-16.017,-9.844l-6.777,-3.281l-23.41,-9.022l-28.955,26.657l1.232,4.511l-32.651,26.242l-6.16,11.071l-46.821,47.564l-11.705,14.762l-3.08,2.87l-9.241,4.1l-1.232,30.343l29.57,29.933l18.482,16.811l14.17,18.042l0.616,0.41l30.187,36.083l21.562,21.732l7.392,9.841l8.009,10.661l58.526,-4.101l-0.616,-18.451l-5.545,-5.741l5.545,-2.46l3.08,-101.689l-1.848,-2.46l7.393,-29.113l-7.393,-12.301l-53.597,1.64Z" style="fill-rule:nonzero;stroke:#fff;stroke-width:5px;stroke-linecap:butt;stroke-miterlimit:1.41421;"/><path d="M708.134,801.951l0,-13.121l-4.312,-89.799l-6.777,-13.532l4.928,-17.222l6.161,-100.87l1.232,-27.883l-25.258,-2.87l-35.732,0.41l0,32.803l6.161,5.741l-6.161,12.711l0,35.264l-20.33,-22.143l-4.928,-1.64l-15.402,-16.401l-55.445,-50.846l-48.669,9.021l0,21.322l2.464,42.645l2.465,23.372l-2.465,85.289l5.545,8.201l-4.928,11.891l-3.697,58.226l0,6.971l1.848,3.69l-4.312,32.804l26.49,3.28l36.348,-0.82l1.232,-26.243l-1.848,-5.74l0.616,-42.645l-5.545,-15.581l3.081,-14.762l1.232,-93.49l-7.393,-5.33l-0.616,-0.82l8.625,-14.762l0,-22.142l16.017,14.761l25.259,23.373l17.866,14.351l8.624,9.021l8.625,6.151l9.857,11.071l0.616,42.645l1.848,7.79l-1.848,2.051l-0.616,39.364l0.616,38.954l-0.616,31.983l20.946,0.82l33.884,-0.41l8.008,-13.941l-3.696,-22.963Z" style="fill-rule:nonzero;stroke:#fff;stroke-width:5px;stroke-linecap:butt;stroke-miterlimit:1.41421;"/><path d="M25.304,170.596c-22.073,-49.297 -31.639,-106.394 -12.613,-168.096c2.908,28.394 8.2,52.667 15.165,73.414l3.539,9.875c19.133,50.084 48.424,77.816 76.059,93.13l1.226,7.26l6.024,-3.498c35.632,17.267 66.654,14.798 66.654,14.798c41.733,0 75.615,33.882 75.615,75.614c0,41.733 -33.882,75.615 -75.615,75.615c0,0 -35.448,-23.158 -74.782,-63.206l3.196,-7.166l-10.714,-0.652c-25.147,-26.707 -51.05,-60.032 -69.688,-98.38l3.388,-8.271l-7.454,-0.437Z" style="stroke:#fff;stroke-width:5px;"/><path d="M716.371,190.715c7.62,-2.434 15.76,-5.698 24.092,-10.069c1.744,10.797 7.953,19.513 24.041,22.078c6.48,1.033 -1.624,18.738 5.692,19.905c3.463,0.552 10.991,5 15.144,4.314c2.812,-0.465 6.622,-1.92 10,-2.759c-7.21,10.517 -14.801,20.487 -22.532,29.865l-5.558,6.613c-12.034,14.054 -24.269,26.663 -35.824,37.653l-8.575,-4.654l0.554,12.13c-30.147,27.542 -53.85,43.027 -53.85,43.027c-41.733,0 -75.614,-33.882 -75.614,-75.614c0,-41.733 33.881,-75.615 75.614,-75.615c0,0 15.84,1.261 37.884,-4.32l5.56,6.566l3.372,-9.12Z" style="stroke:#fff;stroke-width:5px;"/></g></svg>