<?xml version="1.0" encoding="UTF-8" standalone="no"?>
<!DOCTYPE svg PUBLIC "-//W3C//DTD SVG 1.1//EN" "http://www.w3.org/Graphics/SVG/1.1/DTD/svg11.dtd">
<svg width="100%" height="100%" viewBox="0 0 5000 5000" version="1.1" xmlns="http://www.w3.org/2000/svg" xmlns:xlink="http://www.w3.org/1999/xlink" xml:space="preserve" xmlns:serif="http://www.serif.com/" style="fill-rule:evenodd;clip-rule:evenodd;stroke-linecap:round;stroke-linejoin:round;stroke-miterlimit:1.5;">
    <g transform="matrix(2.96511,3.65479e-32,-7.30957e-32,2.96511,-736.398,-4324.96)">
        <path d="M933.061,1743.8C982.333,1741.3 1034.36,1742.11 1088.06,1742.11L1089.87,1742.11C1159.63,1742.15 1226.51,1740.87 1288.2,1747.34L1297.24,1767.54L1312.28,1750.31C1469.07,1772.85 1588.58,1855.87 1629.7,2159.01L1613.64,2175.24L1632.4,2180.18C1641.1,2252.87 1645.54,2321.07 1645.18,2419.84L530.943,2419.84C530.621,2328.84 534.358,2266.28 541.754,2197.55L565.297,2176.6L544.761,2171.76C574.501,1935.49 650.307,1828.9 753.867,1780.94L778.201,1770.9C816.552,1756.88 858.243,1749.6 902.447,1745.85L924.6,1767.54L933.061,1743.8Z" style="stroke:white;stroke-width:9.37px;"/>
    </g>
    <g transform="matrix(-1.93087,0,0,1.70144,5537.77,-3154.9)">
        <ellipse cx="935.6" cy="2797.44" rx="218.781" ry="297.443" style="stroke:white;stroke-width:15.26px;"/>
    </g>
    <g transform="matrix(2.15736,1.94189,-1.34034,1.48907,3235.09,-4102.25)">
        <path d="M1519.24,1513.69C1554.36,1513.69 1581.89,1513.12 1587.39,1559.88C1591.95,1598.64 1555.08,1649.52 1519.96,1649.52C1484.85,1649.52 1446.2,1607.46 1455.59,1569.2C1460.65,1548.61 1484.12,1513.69 1519.24,1513.69Z" style="stroke:white;stroke-width:11.14px;"/>
    </g>
    <g transform="matrix(1.93087,0,0,1.70144,-534.374,-3154.9)">
        <ellipse cx="935.6" cy="2797.44" rx="218.781" ry="297.443" style="stroke:white;stroke-width:15.26px;"/>
    </g>
    <g transform="matrix(-2.96511,0,0,2.96511,5727.93,-4324.96)">
        <path d="M651.083,2270.25L652.416,2257.37L1279.85,2257.37L1306.18,2277.54L1307.48,2257.37L1659.37,2257.37L1659.37,2347.41L1641.13,2363.46L1659.37,2369.57L1659.37,2447.15L1433.86,2447.15L1430.53,2430.63L1411.76,2447.15L1156.1,2447.15L1130.9,2424.94L1127.22,2447.15L601.903,2447.15L580.102,2425.11L574.041,2447.15L516.761,2447.15L516.761,2307.44L530.924,2303.71L516.761,2289.39L516.761,2257.37L633.255,2257.37L651.083,2270.25Z" style="stroke:white;stroke-width:9.37px;"/>
    </g>
    <path d="M2220.33,1164.79L2220.33,723.91L2378.13,723.91L2441.52,810.293L2463.64,723.91L2783.06,723.91L2783.06,1375.91L2748.84,1393.86L2783.06,1403.07L2783.06,2116.09L2733.16,2131.68L2783.06,2158.14L2783.06,3763.21L2746.01,3799.46L2783.06,3797.39L2783.06,4401.82L2620.48,4703.32L2570.18,4709.18L2592.82,4754.6L2501.7,4923.59L2317.25,4581.55L2345.18,4548.98L2302.38,4553.97L2220.33,4401.82L2220.33,4155.43L2268.72,4112.93L2220.33,4075.49L2220.33,3030.39L2269.05,2984.89L2220.33,2958.67L2220.33,1892.6L2249.04,1866.73L2220.33,1854.89L2220.33,1200.29L2254.15,1160.85L2220.33,1164.79Z" style="stroke:white;stroke-width:27.78px;"/>
    <g transform="matrix(51.3383,0,0,34.1759,-72191.2,-123181)">
        <path d="M1438.35,3714.71L1438.42,3720.25L1438.68,3721.05L1438.82,3721.58L1438.42,3732.11L1438.35,3732.51L1436.08,3727.58L1435.02,3727.71L1434.95,3725.64L1431.02,3719.18L1429.82,3717.25L1430.68,3715.91L1432.22,3712.98L1434.82,3708.72L1439.88,3701.58L1439.82,3700.65L1442.15,3698.65L1443.68,3696.05L1441.95,3694.45L1441.22,3693.92L1438.68,3692.45L1435.55,3696.78L1435.68,3697.52L1432.15,3701.78L1431.48,3703.58L1426.42,3711.31L1425.15,3713.71L1424.82,3714.18L1423.82,3714.85L1423.68,3719.78L1426.88,3724.64L1428.88,3727.38L1430.42,3730.31L1430.48,3730.38L1433.75,3736.24L1436.08,3739.78L1436.88,3741.38L1437.75,3743.11L1444.08,3742.44L1444.02,3739.44L1443.42,3738.51L1444.02,3738.11L1444.35,3721.58L1444.15,3721.18L1444.95,3716.45L1444.15,3714.45L1438.35,3714.71Z" style="fill-rule:nonzero;stroke:white;stroke-width:0.64px;stroke-linecap:butt;stroke-miterlimit:1.41421;"/>
        <path d="M1485.68,3736.51L1485.68,3734.38L1485.22,3719.78L1484.48,3717.58L1485.02,3714.78L1485.68,3698.38L1485.82,3693.85L1483.08,3693.38L1479.22,3693.45L1479.22,3698.78L1479.88,3699.72L1479.22,3701.78L1479.22,3707.51L1477.02,3703.91L1476.48,3703.65L1474.82,3700.98L1468.82,3692.72L1463.55,3694.18L1463.55,3697.65L1463.82,3704.58L1464.08,3708.38L1463.82,3722.24L1464.42,3723.58L1463.88,3725.51L1463.48,3734.98L1463.48,3736.11L1463.68,3736.71L1463.22,3742.04L1466.08,3742.58L1470.02,3742.44L1470.15,3738.18L1469.95,3737.24L1470.02,3730.31L1469.42,3727.78L1469.75,3725.38L1469.88,3710.18L1469.08,3709.31L1469.02,3709.18L1469.95,3706.78L1469.95,3703.18L1471.68,3705.58L1474.42,3709.38L1476.35,3711.71L1477.28,3713.18L1478.22,3714.18L1479.28,3715.98L1479.35,3722.91L1479.55,3724.18L1479.35,3724.51L1479.28,3730.91L1479.35,3737.24L1479.28,3742.44L1481.55,3742.58L1485.22,3742.51L1486.08,3740.24L1485.68,3736.51Z" style="fill-rule:nonzero;stroke:white;stroke-width:0.64px;stroke-linecap:butt;stroke-miterlimit:1.41421;"/>
    </g>
    <g transform="matrix(2.72113,0,0,2.72113,-115.396,-3715.62)">
        <path d="M141.161,1736.74C96.095,1636.09 76.565,1519.52 115.409,1393.55C121.347,1451.52 132.15,1501.08 146.371,1543.43L153.597,1563.6C192.658,1665.85 252.46,1722.47 308.88,1753.73L311.383,1768.55L323.682,1761.41C396.43,1796.66 459.766,1791.62 459.766,1791.62C544.969,1791.62 614.143,1860.8 614.143,1946C614.143,2031.2 544.969,2100.38 459.766,2100.38C459.766,2100.38 387.394,2053.1 307.089,1971.33L313.613,1956.7L291.738,1955.37C240.398,1900.85 187.513,1832.81 149.461,1754.52L156.378,1737.63L141.161,1736.74Z" style="stroke:white;stroke-width:10.21px;"/>
    </g>
    <g transform="matrix(2.72113,0,0,2.72113,-114.583,-3715.01)">
        <path d="M1558.75,1777.59C1574.31,1772.62 1590.93,1765.96 1607.94,1757.03C1611.5,1779.08 1624.17,1796.87 1657.02,1802.11C1670.25,1804.22 1653.7,1840.36 1668.64,1842.75C1675.71,1843.87 1691.08,1852.95 1699.56,1851.55C1705.3,1850.61 1713.08,1847.63 1719.98,1845.92C1705.26,1867.39 1689.76,1887.75 1673.97,1906.89L1662.63,1920.4C1638.06,1949.09 1613.08,1974.83 1589.49,1997.27L1571.98,1987.77L1573.11,2012.53C1511.56,2068.76 1463.17,2100.38 1463.17,2100.38C1377.97,2100.38 1308.79,2031.2 1308.79,1946C1308.79,1860.8 1377.97,1791.62 1463.17,1791.62C1463.17,1791.62 1495.51,1794.2 1540.51,1782.8L1551.87,1796.21L1558.75,1777.59Z" style="stroke:white;stroke-width:10.21px;"/>
    </g>
</svg>
