<?xml version="1.0" encoding="UTF-8" standalone="no"?>
<!DOCTYPE svg PUBLIC "-//W3C//DTD SVG 1.1//EN" "http://www.w3.org/Graphics/SVG/1.1/DTD/svg11.dtd">
<svg width="100%" height="100%" viewBox="0 0 4895 4945" version="1.1" xmlns="http://www.w3.org/2000/svg" xmlns:xlink="http://www.w3.org/1999/xlink" xml:space="preserve" xmlns:serif="http://www.serif.com/" style="fill-rule:evenodd;clip-rule:evenodd;stroke-linecap:round;stroke-linejoin:round;stroke-miterlimit:1.5;">
    <g transform="matrix(1,0,0,1,-52.7422,-27.5715)">
        <g transform="matrix(1.23439,0,0,1.23439,-585.971,282.967)">
            <path d="M1119.47,2162.81C1113.15,376.626 1738.06,442.478 2500,442.478L2504.46,442.479C3264.38,442.915 3886.84,380.115 3880.53,2162.81L2500,2162.81L1119.47,2162.81Z" style="stroke:white;stroke-width:22.5px;"/>
        </g>
        <g transform="matrix(-1.99187,0,0,1.75519,5631.98,-3292.56)">
            <ellipse cx="935.6" cy="2797.44" rx="218.781" ry="297.443" style="stroke:white;stroke-width:14.8px;"/>
        </g>
        <g transform="matrix(7.13542e-17,1.1653,-1.85991,1.13887e-16,7152.73,-1506.77)">
            <path d="M1328.6,1224.66C2345.25,1289.9 2287.53,1744.39 2287.53,1744.39C2287.53,1872.98 2454.16,1977.38 2659.4,1977.38C2864.65,1977.38 3031.28,1872.98 3031.28,1744.39C3031.28,1744.39 2294.74,1038.01 1328.6,1224.66Z" style="stroke:white;stroke-width:17.9px;"/>
        </g>
        <g transform="matrix(1.99187,0,0,1.75519,-631.978,-3292.56)">
            <ellipse cx="935.6" cy="2797.44" rx="218.781" ry="297.443" style="stroke:white;stroke-width:14.8px;"/>
        </g>
        <g transform="matrix(-7.13542e-17,1.1653,1.85991,1.13887e-16,-2152.73,-1506.77)">
            <path d="M1328.6,1224.66C2345.25,1289.9 2287.53,1744.39 2287.53,1744.39C2287.53,1872.98 2454.16,1977.38 2659.4,1977.38C2864.65,1977.38 3031.28,1872.98 3031.28,1744.39C3031.28,1744.39 2294.74,1038.01 1328.6,1224.66Z" style="stroke:white;stroke-width:17.9px;"/>
        </g>
        <g transform="matrix(1.21967e-16,1.99187,-1.72111,1.05388e-16,7108.19,-1993.95)">
            <rect x="2208.56" y="1662.12" width="291.438" height="2030.66" style="stroke:white;stroke-width:14.92px;"/>
        </g>
        <g transform="matrix(1.99187,0,0,1.7483,-2189.42,-2197.11)">
            <path d="M2500,1662.12L2208.56,1662.12L2208.56,3692.78L2354.28,4092.92L2500,3692.78L2500,1662.12Z" style="stroke:white;stroke-width:14.82px;"/>
        </g>
        <g transform="matrix(37.3239,0,0,37.3239,-1977.98,-3389.28)">
            <text x="71.067px" y="212.928px" style="font-family:'GRECOromanLubedWrestling';font-weight:500;font-size:56.477px;">G N</text>
        </g>
    </g>
</svg>
