<?xml version="1.0" encoding="UTF-8" standalone="no"?>
<!DOCTYPE svg PUBLIC "-//W3C//DTD SVG 1.1//EN" "http://www.w3.org/Graphics/SVG/1.1/DTD/svg11.dtd">
<svg width="100%" height="100%" viewBox="0 0 3432 1038" version="1.1" xmlns="http://www.w3.org/2000/svg" xmlns:xlink="http://www.w3.org/1999/xlink" xml:space="preserve" xmlns:serif="http://www.serif.com/" style="fill-rule:evenodd;clip-rule:evenodd;stroke-linejoin:round;stroke-miterlimit:1.41421;">
    <g transform="matrix(1,0,0,1,-784.115,-1961.79)">
        <g transform="matrix(1,0,0,1,-323.2,-262.725)">
            <path d="M1179.72,2818.7C1180.92,2816.7 1181.92,2815.7 1182.72,2815.7C1183.52,2815.7 1185.32,2816.51 1188.12,2818.11C1191.72,2820.51 1193.72,2823.01 1194.12,2825.61C1194.52,2828.2 1195.32,2829.51 1196.52,2829.51C1198.12,2829.51 1201.92,2831.11 1207.92,2834.3C1214.72,2837.51 1219.52,2841.51 1222.32,2846.3C1225.52,2851.51 1228.12,2854.11 1230.12,2854.11C1232.52,2854.11 1234.92,2855.8 1237.32,2859.2C1239.72,2862.61 1243.72,2869.91 1249.32,2881.11C1256.12,2894.7 1265.72,2909.7 1278.12,2926.11C1290.52,2942.91 1307.32,2967.3 1328.52,2999.3C1350.12,3031.7 1362.52,3049.7 1365.72,3053.3C1368.92,3056.91 1371.52,3061.11 1373.52,3065.91C1375.92,3070.7 1377.52,3073.11 1378.32,3073.11C1379.52,3073.11 1380.12,3075.31 1380.12,3079.7C1380.12,3084.11 1384.72,3091.7 1393.92,3102.51C1402.72,3113.31 1407.52,3117.91 1408.32,3116.31C1409.12,3114.7 1409.92,3106.31 1410.72,3091.11C1411.52,3075.91 1413.12,3063.51 1415.52,3053.91C1417.92,3043.91 1418.52,3034.11 1417.32,3024.51C1416.12,3014.51 1415.92,2997.11 1416.72,2972.3C1417.92,2927.91 1417.72,2891.3 1416.12,2862.51C1415.72,2858.11 1413.22,2854.3 1408.62,2851.11C1404.02,2847.91 1398.12,2846.11 1390.92,2845.7C1382.92,2844.91 1378.32,2843.51 1377.12,2841.51C1375.12,2839.11 1374.32,2837.41 1374.72,2836.41C1375.12,2835.41 1377.32,2833.91 1381.32,2831.91C1384.12,2829.91 1388.22,2828.8 1393.62,2828.61C1399.02,2828.41 1413.52,2828.3 1437.12,2828.3L1486.92,2828.91L1486.92,2833.11C1486.92,2835.51 1485.62,2837.41 1483.02,2838.8C1480.42,2840.2 1475.72,2841.51 1468.92,2842.7C1460.92,2843.91 1455.72,2845.41 1453.32,2847.2C1450.92,2849.01 1449.92,2851.91 1450.32,2855.91C1451.12,2860.3 1450.52,2863.7 1448.52,2866.11C1446.52,2868.11 1445.12,2880.91 1444.32,2904.51C1443.12,2927.7 1442.72,2961.3 1443.12,3005.3C1443.52,3049.3 1444.32,3079.51 1445.52,3095.91C1446.32,3106.31 1447.32,3119.11 1448.52,3134.31C1448.52,3136.31 1448.82,3140.41 1449.42,3146.61C1450.02,3152.81 1450.32,3157.11 1450.32,3159.51C1451.12,3167.51 1450.72,3172.31 1449.12,3173.91C1446.72,3177.11 1445.32,3194.7 1444.92,3226.7C1444.92,3236.7 1444.52,3242.11 1443.72,3242.91C1442.12,3244.51 1438.62,3245.31 1433.22,3245.31C1427.82,3245.31 1424.02,3244.7 1421.82,3243.51C1419.62,3242.31 1417.42,3239.91 1415.22,3236.31C1413.02,3232.7 1408.52,3224.11 1401.72,3210.51C1396.12,3199.31 1388.92,3186.7 1380.12,3172.7C1372.12,3159.91 1352.62,3130.11 1321.62,3083.31C1290.62,3036.51 1271.12,3007.91 1263.12,2997.51C1256.32,2987.51 1249.72,2977.91 1243.32,2968.7C1223.72,2939.91 1208.72,2918.7 1198.32,2905.11C1196.72,2903.11 1195.72,2904.11 1195.32,2908.11C1194.92,2911.3 1194.32,2921.7 1193.52,2939.3C1193.12,2965.3 1193.12,2978.7 1193.52,2979.51C1193.92,2980.3 1194.32,3020.91 1194.72,3101.31L1195.32,3221.31L1203.72,3224.91C1209.32,3226.91 1212.72,3227.7 1213.92,3227.31C1214.32,3227.31 1214.62,3227.61 1214.82,3228.2C1215.02,3228.81 1215.12,3229.7 1215.12,3230.91C1215.12,3233.31 1216.92,3234.51 1220.52,3234.51C1224.12,3234.51 1227.52,3235.11 1230.72,3236.31C1233.92,3237.51 1235.12,3239.91 1234.32,3243.51C1233.52,3245.91 1232.62,3247.41 1231.62,3248.01C1230.62,3248.61 1228.12,3248.7 1224.12,3248.31L1207.92,3248.31L1145.52,3248.31L1140.12,3247.7C1138.92,3247.7 1134.52,3247.7 1126.92,3247.7C1117.32,3247.7 1112.32,3245.91 1111.92,3242.31C1111.92,3238.31 1117.32,3235.91 1128.12,3235.11C1141.72,3234.7 1152.32,3231.7 1159.92,3226.11L1168.32,3220.7L1168.32,3087.51C1168.32,2997.51 1167.92,2938.91 1167.12,2911.7L1165.92,2869.11L1158.12,2864.91C1153.72,2862.51 1148.12,2858.91 1141.32,2854.11C1134.92,2849.3 1128.72,2846.91 1122.72,2846.91C1117.52,2846.91 1114.22,2846.2 1112.82,2844.8C1111.42,2843.41 1111.12,2840.7 1111.92,2836.7L1113.12,2830.7L1143.72,2829.51C1164.12,2829.11 1174.72,2827.91 1175.52,2825.91C1176.32,2824.3 1177.72,2821.91 1179.72,2818.7Z" style="fill:white;fill-rule:nonzero;stroke:black;stroke-width:8.33px;"/>
            <path d="M1726.32,2828.91C1747.92,2825.3 1760.12,2824.91 1762.92,2827.7C1764.92,2829.3 1769.82,2830.61 1777.62,2831.61C1785.42,2832.61 1791.12,2832.51 1794.72,2831.3C1798.32,2830.11 1801.72,2830.3 1804.92,2831.91C1808.12,2833.51 1817.52,2838.91 1833.12,2848.11C1843.12,2854.11 1854.12,2863.3 1866.12,2875.7C1878.12,2888.11 1888.32,2900.51 1896.72,2912.91C1905.52,2926.51 1909.92,2933.91 1909.92,2935.11C1909.92,2936.3 1912.92,2939.51 1918.92,2944.7C1928.92,2953.51 1936.22,2968.3 1940.82,2989.11C1945.42,3009.91 1946.32,3033.11 1943.52,3058.7C1942.32,3071.11 1939.22,3087.31 1934.22,3107.31C1929.22,3127.31 1925.32,3139.11 1922.52,3142.7C1920.12,3146.7 1917.72,3148.7 1915.32,3148.7C1913.32,3148.7 1911.52,3150.91 1909.92,3155.31C1901.52,3180.91 1882.92,3203.7 1854.12,3223.7C1844.52,3230.11 1838.72,3234.7 1836.72,3237.51C1834.72,3239.91 1831.92,3241.11 1828.32,3241.11C1823.92,3241.51 1816.72,3243.31 1806.72,3246.51C1784.72,3253.31 1764.12,3255.91 1744.92,3254.31C1720.92,3252.7 1701.12,3248.31 1685.52,3241.11C1677.12,3237.11 1670.92,3234.51 1666.92,3233.31C1663.72,3232.91 1658.72,3230.7 1651.92,3226.7C1645.52,3223.51 1639.52,3220.91 1633.92,3218.91C1629.12,3217.31 1623.72,3214.01 1617.72,3209.01C1611.72,3204.01 1607.12,3198.91 1603.92,3193.7C1601.52,3189.7 1597.92,3186.11 1593.12,3182.91C1587.12,3179.31 1582.52,3174.81 1579.32,3169.41C1576.12,3164.01 1573.12,3155.31 1570.32,3143.31C1566.72,3128.11 1564.52,3115.01 1563.72,3104.01C1562.92,3093.01 1561.72,3081.11 1560.12,3068.31C1557.32,3049.11 1558.52,3023.7 1563.72,2992.11C1566.52,2976.91 1568.52,2966.91 1569.72,2962.11C1570.92,2957.3 1573.72,2949.7 1578.12,2939.3C1584.12,2924.51 1592.92,2910.3 1604.52,2896.7C1614.92,2883.51 1625.92,2872.41 1637.52,2863.41C1649.12,2854.41 1658.92,2849.11 1666.92,2847.51C1671.32,2846.7 1677.32,2844.51 1684.92,2840.91C1694.92,2836.11 1708.72,2832.11 1726.32,2828.91ZM1763.52,2840.91C1751.12,2838.51 1744.32,2837.11 1743.12,2836.7C1741.12,2835.91 1736.02,2836.8 1727.82,2839.41C1719.62,2842.01 1712.12,2844.91 1705.32,2848.11C1669.32,2865.7 1644.52,2901.11 1630.92,2954.3C1626.52,2972.3 1624.32,2988.51 1624.32,3002.91C1623.52,3048.51 1625.32,3081.31 1629.72,3101.31C1636.52,3135.31 1641.92,3154.31 1645.92,3158.31C1646.72,3159.91 1647.12,3163.11 1647.12,3167.91C1647.12,3172.7 1650.12,3180.2 1656.12,3190.41C1662.12,3200.61 1667.72,3208.31 1672.92,3213.51C1677.32,3217.11 1684.52,3221.41 1694.52,3226.41C1704.52,3231.41 1713.12,3235.11 1720.32,3237.51C1754.32,3247.11 1784.92,3244.11 1812.12,3228.51C1817.72,3225.31 1822.42,3221.11 1826.22,3215.91C1830.02,3210.7 1835.52,3201.11 1842.72,3187.11C1846.72,3179.11 1849.42,3172.81 1850.82,3168.2C1852.22,3163.61 1853.72,3154.11 1855.32,3139.7C1863.72,3077.31 1867.72,3044.51 1867.32,3041.3C1867.32,3040.91 1867.22,3039.41 1867.02,3036.8C1866.82,3034.2 1866.52,3030.3 1866.12,3025.11C1865.72,3019.91 1865.32,3015.51 1864.92,3011.91C1863.72,2993.91 1862.52,2984.11 1861.32,2982.51C1860.12,2981.3 1859.32,2976.3 1858.92,2967.51C1857.72,2959.11 1856.32,2952.3 1854.72,2947.11C1853.12,2941.91 1852.72,2937.3 1853.52,2933.3C1855.12,2926.91 1852.72,2917.51 1846.32,2905.11C1839.92,2892.7 1831.92,2881.7 1822.32,2872.11C1812.72,2862.51 1803.92,2855.61 1795.92,2851.41C1787.92,2847.2 1777.12,2843.7 1763.52,2840.91ZM1744.32,3005.3C1744.72,3003.3 1747.32,3002.2 1752.12,3002.01C1756.92,3001.8 1760.92,3002.51 1764.12,3004.11C1772.52,3008.51 1776.72,3014.11 1776.72,3020.91C1776.72,3025.7 1777.52,3030.11 1779.12,3034.11C1781.52,3040.11 1781.72,3045.2 1779.72,3049.41C1777.72,3053.61 1773.52,3056.3 1767.12,3057.51C1762.32,3058.3 1759.12,3059.51 1757.52,3061.11C1756.32,3063.11 1754.52,3064.11 1752.12,3064.11C1750.12,3064.11 1748.72,3065.11 1747.92,3067.11C1747.12,3068.7 1742.92,3069.51 1735.32,3069.51C1730.52,3069.51 1727.32,3069.31 1725.72,3068.91C1724.12,3068.51 1723.12,3067.31 1722.72,3065.31C1721.92,3063.31 1721.92,3060.41 1722.72,3056.61C1723.52,3052.8 1724.72,3050.11 1726.32,3048.51C1727.52,3046.91 1728.02,3045.01 1727.82,3042.8C1727.62,3040.61 1726.72,3039.51 1725.12,3039.51C1722.72,3039.51 1721.22,3037.2 1720.62,3032.61C1720.02,3028.01 1720.52,3024.11 1722.12,3020.91C1723.32,3018.91 1726.12,3016.8 1730.52,3014.61C1734.92,3012.41 1738.52,3011.3 1741.32,3011.3C1742.52,3011.3 1743.32,3011.2 1743.72,3011.01C1744.12,3010.8 1744.32,3010.51 1744.32,3010.11C1743.52,3008.91 1743.52,3007.3 1744.32,3005.3Z" style="fill:white;fill-rule:nonzero;stroke:black;stroke-width:8.33px;"/>
            <path d="M2164.32,2828.3C2166.32,2823.51 2178.12,2824.91 2199.72,2832.51C2218.12,2838.51 2233.52,2846.7 2245.92,2857.11C2260.72,2869.11 2271.32,2881.51 2277.72,2894.3C2280.92,2900.7 2282.82,2905.3 2283.42,2908.11C2284.02,2910.91 2284.12,2916.51 2283.72,2924.91C2283.72,2934.91 2282.52,2943.2 2280.12,2949.8C2277.72,2956.41 2273.32,2963.3 2266.92,2970.51C2259.32,2979.7 2248.92,2988.8 2235.72,2997.8C2222.52,3006.8 2211.52,3012.3 2202.72,3014.3C2198.72,3015.11 2197.52,3016.51 2199.12,3018.51C2200.32,3020.11 2200.52,3020.91 2199.72,3020.91C2198.92,3020.91 2199.12,3021.7 2200.32,3023.3C2201.52,3024.91 2202.52,3029.11 2203.32,3035.91C2204.12,3042.7 2205.42,3047.11 2207.22,3049.11C2209.02,3051.11 2214.42,3060.2 2223.42,3076.41C2232.42,3092.61 2239.52,3106.7 2244.72,3118.7C2257.52,3144.7 2265.82,3161.01 2269.62,3167.61C2273.42,3174.2 2279.12,3181.51 2286.72,3189.51C2309.92,3214.7 2322.72,3226.11 2325.12,3223.7C2326.32,3222.51 2324.92,3220.31 2320.92,3217.11C2314.92,3211.51 2313.42,3205.11 2316.42,3197.91C2319.42,3190.7 2325.12,3187.11 2333.52,3187.11C2347.52,3187.11 2355.52,3193.01 2357.52,3204.81C2359.52,3216.61 2354.72,3228.7 2343.12,3241.11C2339.52,3245.11 2337.72,3247.51 2337.72,3248.31C2337.72,3249.11 2337.12,3249.61 2335.92,3249.81C2334.72,3250.01 2333.42,3249.91 2332.02,3249.51C2330.62,3249.11 2329.72,3248.51 2329.32,3247.7C2328.52,3246.51 2326.72,3246.31 2323.92,3247.11C2321.12,3247.51 2315.12,3247.91 2305.92,3248.31C2299.92,3248.7 2295.62,3248.7 2293.02,3248.31C2290.42,3247.91 2286.72,3246.31 2281.92,3243.51C2267.92,3236.31 2256.92,3228.7 2248.92,3220.7C2243.72,3215.11 2237.92,3206.31 2231.52,3194.31C2227.12,3187.11 2220.52,3176.7 2211.72,3163.11C2200.92,3146.7 2191.52,3131.7 2183.52,3118.11C2175.12,3103.31 2169.32,3094.51 2166.12,3091.7C2162.52,3088.91 2158.32,3082.31 2153.52,3071.91C2148.32,3061.11 2142.12,3052.11 2134.92,3044.91C2127.72,3037.7 2124.12,3033.51 2124.12,3032.3C2124.12,3031.11 2122.12,3030.51 2118.12,3030.51L2111.52,3030.51L2112.12,3049.11C2112.52,3068.31 2113.62,3094.41 2115.42,3127.41C2117.22,3160.41 2118.52,3177.51 2119.32,3178.7C2120.12,3179.91 2120.72,3185.91 2121.12,3196.7C2121.52,3208.31 2122.12,3214.7 2122.92,3215.91C2124.52,3218.31 2128.82,3221.41 2135.82,3225.2C2142.82,3229.01 2148.32,3231.31 2152.32,3232.11C2159.52,3233.31 2163.72,3235.11 2164.92,3237.51C2166.12,3239.91 2164.52,3243.7 2160.12,3248.91C2156.92,3253.31 2153.72,3255.11 2150.52,3254.31C2146.92,3253.51 2135.82,3253.2 2117.22,3253.41C2098.62,3253.61 2088.72,3254.11 2087.52,3254.91C2086.72,3255.7 2075.82,3256.41 2054.82,3257.01C2033.82,3257.61 2018.52,3257.7 2008.92,3257.31C2006.52,3257.31 2005.52,3255.51 2005.92,3251.91C2006.32,3249.91 2007.12,3248.51 2008.32,3247.7C2009.52,3246.91 2012.12,3245.91 2016.12,3244.7C2032.52,3241.11 2044.52,3231.91 2052.12,3217.11C2054.92,3211.51 2055.32,3192.31 2053.32,3159.51C2052.52,3146.31 2052.12,3103.91 2052.12,3032.3C2051.72,2959.11 2051.12,2921.7 2050.32,2920.11C2049.52,2918.91 2049.32,2908.3 2049.72,2888.3L2050.32,2857.7L2045.52,2857.11C2042.72,2856.3 2041.92,2854.7 2043.12,2852.3C2043.92,2851.11 2044.02,2850.11 2043.42,2849.3C2042.82,2848.51 2041.12,2847.3 2038.32,2845.7C2035.52,2844.91 2029.42,2843.61 2020.02,2841.8C2010.62,2840.01 2004.32,2839.11 2001.12,2839.11C2000.32,2839.11 2000.12,2837.7 2000.52,2834.91C2000.92,2832.91 2002.42,2831.7 2005.02,2831.3C2007.62,2830.91 2016.92,2830.91 2032.92,2831.3C2097.32,2832.11 2131.32,2831.51 2134.92,2829.51C2137.32,2827.91 2142.72,2827.7 2151.12,2828.91C2159.52,2830.11 2163.92,2829.91 2164.32,2828.3ZM2152.92,2849.3C2144.12,2848.51 2137.92,2847.91 2134.32,2847.51C2130.72,2847.11 2126.52,2847.41 2121.72,2848.41C2116.92,2849.41 2113.82,2850.51 2112.42,2851.7C2111.02,2852.91 2111.12,2857.91 2112.72,2866.7C2113.92,2874.3 2114.52,2881.91 2114.52,2889.51C2114.92,2897.11 2114.62,2906.11 2113.62,2916.51C2112.62,2926.91 2111.52,2932.8 2110.32,2934.2C2109.12,2935.61 2108.52,2944.51 2108.52,2960.91C2108.52,2977.3 2109.12,2990.3 2110.32,2999.91L2110.92,3011.3L2118.12,3011.3C2123.32,3011.3 2136.82,3009.3 2158.62,3005.3C2180.42,3001.3 2192.32,2998.7 2194.32,2997.51C2200.32,2993.51 2206.52,2985.3 2212.92,2972.91C2216.12,2966.11 2217.72,2957.11 2217.72,2945.91C2217.72,2919.11 2214.72,2895.91 2208.72,2876.3C2206.72,2870.3 2205.12,2866.51 2203.92,2864.91C2202.72,2863.3 2199.52,2861.51 2194.32,2859.51C2181.52,2853.91 2167.72,2850.51 2152.92,2849.3Z" style="fill:white;fill-rule:nonzero;stroke:black;stroke-width:8.33px;"/>
            <path d="M2707.92,2827.7C2708.72,2827.3 2713.22,2827.3 2721.42,2827.7C2729.62,2828.11 2733.72,2828.7 2733.72,2829.51C2733.72,2830.3 2735.12,2830.7 2737.92,2830.7C2739.52,2830.7 2740.82,2831.3 2741.82,2832.51C2742.82,2833.7 2743.92,2836.51 2745.12,2840.91C2747.52,2849.3 2747.32,2859.91 2744.52,2872.7C2743.32,2878.7 2742.82,2886.91 2743.02,2897.3C2743.22,2907.7 2743.92,2913.51 2745.12,2914.7C2746.72,2915.91 2748.52,2919.3 2750.52,2924.91C2752.52,2931.7 2753.52,2935.3 2753.52,2935.7C2753.92,2936.51 2751.32,2938.41 2745.72,2941.41C2740.12,2944.41 2736.12,2945.91 2733.72,2945.91C2732.52,2945.91 2730.72,2943.51 2728.32,2938.7C2726.72,2934.3 2725.12,2931.3 2723.52,2929.7C2721.52,2928.51 2719.32,2916.51 2716.92,2893.7C2716.12,2885.7 2714.22,2878.3 2711.22,2871.51C2708.22,2864.7 2705.32,2861.3 2702.52,2861.3C2700.52,2861.3 2694.12,2859.11 2683.32,2854.7C2675.72,2851.51 2669.82,2849.51 2665.62,2848.7C2661.42,2847.91 2652.12,2847.3 2637.72,2846.91L2607.72,2845.7L2607.72,2851.11C2607.72,2854.7 2608.32,2857.51 2609.52,2859.51C2610.32,2860.7 2610.32,2865.11 2609.52,2872.7C2608.72,2877.51 2607.52,2887.51 2605.92,2902.7C2604.72,2915.11 2603.72,2924.51 2602.92,2930.91C2601.72,2940.51 2601.02,2959.8 2600.82,2988.8C2600.62,3017.8 2601.12,3033.11 2602.32,3034.7C2603.52,3037.91 2604.52,3064.31 2605.32,3113.91C2606.12,3165.91 2606.72,3195.51 2607.12,3202.7C2607.52,3219.91 2610.72,3228.7 2616.72,3229.11C2619.92,3229.51 2621.72,3229.7 2622.12,3229.7C2624.12,3230.11 2625.52,3230.31 2626.32,3230.31C2627.92,3230.7 2628.72,3232.11 2628.72,3234.51C2628.72,3236.11 2629.82,3237.41 2632.02,3238.41C2634.22,3239.41 2639.12,3241.11 2646.72,3243.51C2648.72,3243.91 2649.52,3245.41 2649.12,3248.01C2648.72,3250.61 2647.32,3252.31 2644.92,3253.11C2642.52,3253.91 2634.52,3253.91 2620.92,3253.11C2607.32,3252.31 2599.42,3251.31 2597.22,3250.11C2595.02,3248.91 2592.72,3248.91 2590.32,3250.11C2587.12,3250.91 2571.12,3251.31 2542.32,3251.31C2513.52,3251.31 2498.92,3250.7 2498.52,3249.51C2496.12,3245.91 2499.92,3242.31 2509.92,3238.7C2515.92,3236.31 2523.32,3234.31 2532.12,3232.7L2543.52,3230.31L2544.72,3218.31C2545.12,3210.31 2544.72,3204.91 2543.52,3202.11C2543.12,3198.11 2543.12,3177.31 2543.52,3139.7C2545.12,3062.11 2544.92,3004.7 2542.92,2967.51C2541.32,2938.3 2541.72,2917.11 2544.12,2903.91C2545.32,2896.3 2545.32,2891.51 2544.12,2889.51C2542.92,2886.7 2542.32,2884.3 2542.32,2882.3C2542.72,2879.91 2542.52,2873.91 2541.72,2864.3L2539.92,2849.3L2523.12,2849.91C2511.52,2850.3 2504.92,2851.11 2503.32,2852.3C2502.12,2853.51 2495.32,2853.91 2482.92,2853.51C2473.72,2853.51 2468.02,2853.7 2465.82,2854.11C2463.62,2854.51 2461.32,2855.7 2458.92,2857.7C2453.72,2862.51 2447.52,2871.91 2440.32,2885.91C2439.12,2888.3 2438.12,2889.51 2437.32,2889.51C2436.52,2889.51 2436.12,2896.3 2436.12,2909.91C2436.52,2920.7 2436.52,2927.51 2436.12,2930.3C2435.72,2933.11 2434.72,2934.51 2433.12,2934.51C2431.52,2934.51 2429.92,2935.91 2428.32,2938.7C2426.72,2940.7 2423.92,2941.8 2419.92,2942.01C2415.92,2942.2 2412.62,2941.3 2410.02,2939.3C2407.42,2937.3 2406.32,2933.11 2406.72,2926.7C2407.12,2920.3 2409.52,2898.91 2413.92,2862.51C2414.32,2859.7 2414.72,2857.7 2415.12,2856.51C2416.32,2845.7 2417.82,2839.2 2419.62,2837.01C2421.42,2834.8 2426.52,2833.3 2434.92,2832.51C2443.72,2831.7 2449.92,2831.7 2453.52,2832.51C2456.32,2833.3 2459.12,2832.91 2461.92,2831.3C2464.72,2830.11 2467.32,2830.11 2469.72,2831.3C2471.72,2832.11 2486.02,2832.91 2512.62,2833.7C2539.22,2834.51 2563.62,2834.91 2585.82,2834.91C2608.02,2834.91 2621.12,2834.51 2625.12,2833.7C2625.12,2830.91 2640.92,2829.51 2672.52,2829.51C2695.72,2829.11 2707.52,2828.51 2707.92,2827.7Z" style="fill:white;fill-rule:nonzero;stroke:black;stroke-width:8.33px;"/>
            <path d="M2824.32,2828.3C2825.52,2827.51 2847.32,2827.01 2889.72,2826.8C2932.12,2826.61 2955.92,2826.7 2961.12,2827.11C2963.92,2827.51 2965.72,2828.7 2966.52,2830.7C2968.52,2836.3 2964.12,2839.11 2953.32,2839.11C2948.52,2839.11 2945.22,2839.51 2943.42,2840.3C2941.62,2841.11 2938.52,2843.7 2934.12,2848.11L2925.12,2857.11L2926.92,2873.91C2928.92,2891.51 2928.32,2929.7 2925.12,2988.51L2924.52,3011.3L2947.32,3011.3C2962.92,3011.3 2971.52,3011.91 2973.12,3013.11C2975.12,3014.3 2977.72,3013.3 2980.92,3010.11C2983.72,3007.3 2987.92,3004.7 2993.52,3002.3C2999.12,2999.91 3003.92,2998.7 3007.92,2998.7C3011.52,2998.3 3014.12,2997.11 3015.72,2995.11C3016.92,2993.11 3020.12,2992.7 3025.32,2993.91C3028.52,2994.7 3030.52,2995.51 3031.32,2996.3C3032.12,2997.11 3032.52,2999.3 3032.52,3002.91C3032.52,3005.7 3032.72,3007.51 3033.12,3008.3C3033.52,3009.11 3034.52,3009.51 3036.12,3009.51C3038.92,3009.51 3040.72,3009.91 3041.52,3010.7C3042.32,3011.91 3052.12,3012.51 3070.92,3012.51L3099.12,3013.11L3099.12,3005.3C3099.12,2982.91 3100.32,2965.3 3102.72,2952.51C3103.52,2947.7 3103.82,2929.8 3103.62,2898.8C3103.42,2867.8 3102.72,2851.7 3101.52,2850.51C3101.12,2849.3 3097.32,2847.91 3090.12,2846.3C3082.52,2844.7 3077.62,2843.2 3075.42,2841.8C3073.22,2840.41 3069.92,2839.11 3065.52,2837.91C3061.52,2837.11 3059.12,2836.11 3058.32,2834.91C3057.52,2833.7 3058.32,2831.91 3060.72,2829.51C3063.12,2827.11 3065.12,2826.3 3066.72,2827.11C3068.72,2827.51 3083.32,2827.7 3110.52,2827.7C3137.72,2827.7 3151.72,2828.3 3152.52,2829.51C3153.32,2830.7 3162.02,2831.3 3178.62,2831.3C3195.22,2831.3 3203.92,2832.3 3204.72,2834.3C3205.92,2837.11 3205.32,2839.2 3202.92,2840.61C3200.52,2842.01 3196.32,2842.91 3190.32,2843.3C3183.92,2844.11 3178.02,2845.3 3172.62,2846.91C3167.22,2848.51 3163.32,2850.51 3160.92,2852.91C3158.52,2855.3 3157.92,2857.51 3159.12,2859.51C3159.92,2861.51 3160.52,2875.91 3160.92,2902.7C3161.32,2985.11 3161.62,3036.01 3161.82,3055.41C3162.02,3074.81 3162.92,3085.51 3164.52,3087.51C3166.12,3089.91 3166.52,3092.81 3165.72,3096.2C3164.92,3099.61 3163.32,3101.7 3160.92,3102.51C3158.92,3103.31 3157.62,3105.81 3157.02,3110.01C3156.42,3114.2 3156.32,3123.31 3156.72,3137.31C3157.12,3156.11 3158.52,3173.51 3160.92,3189.51C3162.52,3198.31 3162.92,3204.7 3162.12,3208.7C3161.72,3212.31 3162.32,3214.11 3163.92,3214.11C3165.12,3214.11 3166.52,3215.51 3168.12,3218.31C3171.72,3225.51 3174.42,3229.91 3176.22,3231.51C3178.02,3233.11 3181.12,3234.11 3185.52,3234.51C3191.52,3234.91 3194.52,3235.51 3194.52,3236.31C3194.52,3237.51 3195.92,3238.31 3198.72,3238.7C3201.12,3239.51 3202.22,3241.7 3202.02,3245.31C3201.82,3248.91 3200.12,3250.91 3196.92,3251.31C3194.12,3251.7 3191.92,3252.91 3190.32,3254.91C3188.32,3256.91 3179.32,3257.51 3163.32,3256.7C3148.12,3255.51 3128.32,3255.31 3103.92,3256.11L3067.92,3256.11L3065.52,3250.7C3063.92,3247.11 3063.72,3243.31 3064.92,3239.31L3067.32,3232.7L3081.72,3232.7C3090.92,3232.7 3096.52,3232.31 3098.52,3231.51C3099.72,3230.31 3099.92,3219.7 3099.12,3199.7C3097.52,3174.11 3097.12,3133.11 3097.92,3076.7L3098.52,3030.51L3090.12,3029.91C3078.12,3029.51 3065.92,3029.11 3053.52,3028.7C3046.32,3027.91 3042.22,3028.2 3041.22,3029.61C3040.22,3031.01 3037.72,3032.7 3033.72,3034.7C3029.72,3036.7 3027.32,3038.7 3026.52,3040.7C3025.72,3042.7 3023.52,3044.61 3019.92,3046.41C3016.32,3048.2 3012.92,3049.11 3009.72,3049.11C3004.52,3049.11 2997.42,3046.2 2988.42,3040.41C2979.42,3034.61 2974.92,3029.91 2974.92,3026.3C2974.92,3025.11 2970.32,3024.61 2961.12,3024.8C2951.92,3025.01 2943.52,3025.7 2935.92,3026.91L2922.72,3029.3L2923.92,3038.91C2924.72,3044.51 2925.12,3059.51 2925.12,3083.91C2925.12,3107.51 2923.92,3122.7 2921.52,3129.51C2919.52,3135.91 2919.12,3152.31 2920.32,3178.7C2921.92,3204.7 2923.32,3220.7 2924.52,3226.7C2925.72,3230.31 2926.92,3232.51 2928.12,3233.31C2929.32,3234.11 2932.12,3235.11 2936.52,3236.31C2942.52,3237.91 2948.32,3238.7 2953.92,3238.7C2958.32,3238.7 2961.22,3239.51 2962.62,3241.11C2964.02,3242.7 2963.72,3244.7 2961.72,3247.11C2960.12,3249.11 2944.92,3249.7 2916.12,3248.91C2888.12,3248.51 2867.12,3248.91 2853.12,3250.11C2840.72,3251.31 2832.62,3251.51 2828.82,3250.7C2825.02,3249.91 2823.12,3247.7 2823.12,3244.11C2823.12,3240.11 2824.72,3237.7 2827.92,3236.91C2841.52,3231.31 2849.52,3227.31 2851.92,3224.91C2853.92,3222.51 2854.72,3220.7 2854.32,3219.51C2853.52,3218.31 2853.92,3217.41 2855.52,3216.81C2857.12,3216.2 2858.12,3207.7 2858.52,3191.31C2858.92,3174.91 2859.32,3119.91 2859.72,3026.3C2860.12,2930.7 2859.72,2881.7 2858.52,2879.3C2857.32,2876.91 2856.32,2873.11 2855.52,2867.91C2855.12,2863.11 2851.92,2857.7 2845.92,2851.7C2839.52,2846.11 2836.32,2842.41 2836.32,2840.61C2836.32,2838.8 2833.92,2837.51 2829.12,2836.7C2826.32,2836.3 2824.32,2835.61 2823.12,2834.61C2821.92,2833.61 2821.32,2832.61 2821.32,2831.61C2821.32,2830.61 2822.32,2829.51 2824.32,2828.3Z" style="fill:white;fill-rule:nonzero;stroke:black;stroke-width:8.33px;"/>
            <path d="M3248.52,2832.51C3250.92,2831.3 3252.92,2830.3 3254.52,2829.51C3256.12,2828.7 3274.22,2828.61 3308.82,2829.2C3343.42,2829.8 3361.72,2830.7 3363.72,2831.91C3365.72,2833.11 3366.72,2834.91 3366.72,2837.3C3366.72,2840.11 3368.12,2841.7 3370.92,2842.11C3373.32,2842.91 3374.92,2844.7 3375.72,2847.51C3376.92,2850.3 3378.72,2853.7 3381.12,2857.7C3383.52,2861.7 3389.72,2874.91 3399.72,2897.3C3406.92,2913.7 3416.32,2934.51 3427.92,2959.7C3435.92,2976.91 3441.92,2990.51 3445.92,3000.51C3447.52,3005.3 3450.32,3011.7 3454.32,3019.7C3461.92,3035.7 3471.32,3060.7 3482.52,3094.7L3486.72,3107.91L3489.72,3101.31C3492.12,3095.31 3494.72,3087.51 3497.52,3077.91C3501.12,3064.31 3505.12,3050.91 3509.52,3037.7C3513.92,3024.51 3518.32,3009.7 3522.72,2993.3C3529.92,2966.91 3544.32,2925.51 3565.92,2869.11C3569.52,2860.3 3572.92,2853.51 3576.12,2848.7C3579.72,2843.91 3581.32,2840.3 3580.92,2837.91C3580.52,2833.51 3583.02,2830.91 3588.42,2830.11C3593.82,2829.3 3611.12,2829.11 3640.32,2829.51C3666.72,2829.51 3680.52,2830.51 3681.72,2832.51C3682.52,2835.7 3681.22,2838.01 3677.82,2839.41C3674.42,2840.8 3667.72,2841.91 3657.72,2842.7C3644.52,2843.91 3637.72,2844.51 3637.32,2844.51C3636.92,2844.51 3636.82,2845.11 3637.02,2846.3C3637.22,2847.51 3637.52,2848.91 3637.92,2850.51C3638.72,2854.91 3639.52,2865.51 3640.32,2882.3C3640.32,2895.11 3640.72,2908.11 3641.52,2921.3C3641.92,2930.51 3641.52,2939.91 3640.32,2949.51C3639.12,2959.91 3638.52,2965.51 3638.52,2966.3C3638.52,2968.7 3638.92,2981.01 3639.72,3003.2C3640.52,3025.41 3641.12,3037.11 3641.52,3038.3C3641.52,3038.7 3642.12,3041.51 3643.32,3046.7C3644.12,3051.11 3643.72,3055.11 3642.12,3058.7C3640.12,3062.7 3638.92,3072.31 3638.52,3087.51C3638.52,3101.91 3638.12,3112.31 3637.32,3118.7C3636.12,3125.11 3635.92,3128.51 3636.72,3128.91C3637.92,3129.31 3638.92,3152.31 3639.72,3197.91C3639.72,3219.91 3640.52,3231.51 3642.12,3232.7C3644.12,3233.51 3651.32,3234.91 3663.72,3236.91C3677.72,3239.31 3685.82,3240.91 3688.02,3241.7C3690.22,3242.51 3691.32,3243.7 3691.32,3245.31C3691.32,3249.7 3689.02,3252.31 3684.42,3253.11C3679.82,3253.91 3664.52,3254.51 3638.52,3254.91C3565.32,3255.7 3527.52,3252.31 3525.12,3244.7C3524.72,3243.91 3525.22,3243.11 3526.62,3242.31C3528.02,3241.51 3529.82,3240.91 3532.02,3240.51C3534.22,3240.11 3535.92,3239.91 3537.12,3239.91C3539.12,3240.31 3540.92,3239.7 3542.52,3238.11C3544.52,3236.51 3550.72,3235.91 3561.12,3236.31C3568.32,3236.7 3572.72,3236.7 3574.32,3236.31C3575.92,3235.91 3576.72,3235.01 3576.72,3233.61C3576.72,3232.2 3576.92,3231.51 3577.32,3231.51C3577.72,3231.51 3578.72,3231.91 3580.32,3232.7L3582.12,3233.91C3579.72,3229.91 3578.32,3172.7 3577.92,3062.31C3577.92,3017.51 3577.72,2977.11 3577.32,2941.11L3576.72,2902.11L3568.32,2927.3C3563.12,2942.91 3557.32,2963.7 3550.92,2989.7C3544.92,3014.51 3537.82,3040.8 3529.62,3068.61C3521.42,3096.41 3515.72,3113.91 3512.52,3121.11C3509.32,3128.31 3507.72,3134.91 3507.72,3140.91C3507.72,3161.31 3501.72,3188.7 3489.72,3223.11C3486.92,3232.31 3485.72,3237.7 3486.12,3239.31C3486.92,3240.51 3486.22,3242.51 3484.02,3245.31C3481.82,3248.11 3479.72,3249.7 3477.72,3250.11C3474.52,3250.51 3471.52,3249.91 3468.72,3248.31C3465.92,3246.7 3463.92,3244.51 3462.72,3241.7C3461.52,3238.51 3459.52,3236.7 3456.72,3236.31C3454.32,3236.31 3450.62,3233.31 3445.62,3227.31C3440.62,3221.31 3436.92,3215.51 3434.52,3209.91C3432.92,3206.31 3431.52,3204.51 3430.32,3204.51C3427.52,3204.51 3427.52,3202.11 3430.32,3197.31C3431.12,3196.11 3432.12,3195.11 3433.32,3194.31C3436.52,3191.91 3438.12,3189.11 3438.12,3185.91C3438.12,3179.51 3434.82,3166.61 3428.22,3147.2C3421.62,3127.81 3414.72,3111.11 3407.52,3097.11C3400.72,3083.11 3396.52,3073.7 3394.92,3068.91C3393.72,3064.11 3391.32,3057.91 3387.72,3050.3C3379.72,3034.7 3371.72,3013.91 3363.72,2987.91C3355.72,2964.3 3350.32,2948.11 3347.52,2939.3L3339.72,2915.3L3338.52,2925.51C3337.72,2931.11 3337.32,2944.7 3337.32,2966.3C3337.32,2986.3 3336.92,2996.91 3336.12,2998.11C3335.72,2998.91 3335.32,3024.3 3334.92,3074.31C3334.52,3109.11 3334.42,3130.51 3334.62,3138.51C3334.82,3146.51 3335.72,3151.31 3337.32,3152.91C3339.72,3154.91 3340.92,3162.7 3340.92,3176.31C3341.32,3193.11 3341.12,3206.7 3340.32,3217.11C3339.52,3225.51 3339.92,3230.81 3341.52,3233.01C3343.12,3235.2 3347.32,3236.7 3354.12,3237.51C3358.92,3237.91 3364.72,3238.51 3371.52,3239.31C3377.52,3240.11 3379.92,3242.91 3378.72,3247.7C3378.32,3250.11 3373.62,3251.7 3364.62,3252.51C3355.62,3253.31 3336.52,3253.51 3307.32,3253.11C3273.32,3252.7 3255.92,3251.7 3255.12,3250.11C3254.32,3248.11 3255.12,3246.31 3257.52,3244.7C3259.92,3243.11 3262.72,3242.31 3265.92,3242.31C3269.52,3242.31 3271.92,3241.41 3273.12,3239.61C3274.32,3237.81 3279.32,3237.31 3288.12,3238.11L3301.32,3238.7L3301.32,3232.7C3301.72,3228.31 3301.72,3225.7 3301.32,3224.91C3301.32,3224.51 3301.62,3224.01 3302.22,3223.41C3302.82,3222.81 3303.52,3222.51 3304.32,3222.51C3305.92,3221.7 3306.92,3219.2 3307.32,3215.01C3307.72,3210.81 3307.72,3199.11 3307.32,3179.91C3307.32,3153.91 3306.52,3132.7 3304.92,3116.31C3302.92,3090.31 3302.52,3050.91 3303.72,2998.11C3304.92,2945.3 3307.12,2913.51 3310.32,2902.7C3312.72,2893.51 3313.32,2884.51 3312.12,2875.7C3311.72,2873.7 3306.12,2867.3 3295.32,2856.51L3279.72,2840.3L3267.12,2841.51C3252.32,2842.3 3244.92,2840.7 3244.92,2836.7C3244.92,2834.3 3246.12,2832.91 3248.52,2832.51ZM3471.12,2829.51C3481.52,2827.11 3489.92,2827.7 3496.32,2831.3C3500.72,2834.11 3505.62,2838.3 3511.02,2843.91C3516.42,2849.51 3519.12,2853.3 3519.12,2855.3C3519.12,2860.51 3513.32,2865.7 3501.72,2870.91C3497.72,2872.51 3495.22,2873.91 3494.22,2875.11C3493.22,2876.3 3492.72,2877.91 3492.72,2879.91C3493.12,2883.11 3491.92,2885.11 3489.12,2885.91C3485.92,2886.7 3482.12,2886.61 3477.72,2885.61C3473.32,2884.61 3470.92,2883.51 3470.52,2882.3C3470.12,2881.11 3467.92,2879.51 3463.92,2877.51C3458.72,2874.7 3455.02,2868.8 3452.82,2859.8C3450.62,2850.8 3451.12,2843.91 3454.32,2839.11C3457.52,2834.7 3463.12,2831.51 3471.12,2829.51Z" style="fill:white;fill-rule:nonzero;stroke:black;stroke-width:8.33px;"/>
            <path d="M3910.32,2830.7C3912.72,2829.91 3916.72,2829.61 3922.32,2829.8C3927.92,2830.01 3931.12,2830.7 3931.92,2831.91C3933.92,2834.7 3936.32,2841.91 3939.12,2853.51C3941.92,2865.11 3942.72,2871.3 3941.52,2872.11C3940.32,2872.51 3940.02,2876.01 3940.62,2882.61C3941.22,2889.2 3942.12,2892.7 3943.32,2893.11C3944.52,2893.91 3945.72,2897.11 3946.92,2902.7C3948.52,2909.51 3951.92,2919.51 3957.12,2932.7C3962.32,2945.91 3965.52,2953.11 3966.72,2954.3C3968.72,2955.51 3970.92,2959.91 3973.32,2967.51C3976.12,2975.11 3978.52,2979.51 3980.52,2980.7C3982.52,2982.3 3984.12,2986.11 3985.32,2992.11C3986.52,2998.51 3988.52,3004.7 3991.32,3010.7C3994.52,3017.11 3996.12,3021.91 3996.12,3025.11C3996.12,3027.11 3996.72,3030.41 3997.92,3035.01C3999.12,3039.61 4000.12,3042.3 4000.92,3043.11C4001.32,3043.11 4005.32,3040.51 4012.92,3035.3C4020.52,3030.11 4029.22,3023.8 4039.02,3016.41C4048.82,3009.01 4056.52,3003.11 4062.12,2998.7C4093.32,2973.91 4108.92,2966.7 4108.92,2977.11C4108.92,2979.51 4107.42,2982.2 4104.42,2985.2C4101.42,2988.2 4094.92,2993.11 4084.92,2999.91C4057.32,3019.51 4032.92,3038.11 4011.72,3055.7L4006.92,3059.91L4012.92,3077.31C4017.32,3091.31 4024.12,3108.11 4033.32,3127.7C4039.32,3140.91 4043.12,3151.51 4044.72,3159.51C4046.32,3166.7 4049.72,3176.01 4054.92,3187.41C4060.12,3198.81 4063.72,3204.51 4065.72,3204.51C4066.92,3204.51 4069.02,3207.2 4072.02,3212.61C4075.02,3218.01 4076.52,3221.91 4076.52,3224.31C4076.52,3225.91 4077.32,3227.11 4078.92,3227.91C4080.52,3228.31 4080.12,3229.51 4077.72,3231.51C4075.72,3233.51 4076.12,3234.51 4078.92,3234.51C4080.52,3234.51 4083.32,3234.51 4087.32,3234.51C4096.12,3234.51 4101.32,3235.51 4102.92,3237.51C4107.32,3242.7 4104.52,3246.11 4094.52,3247.7C4089.32,3248.51 4082.92,3248.31 4075.32,3247.11C4065.72,3245.91 4059.32,3245.91 4056.12,3247.11C4052.92,3248.31 4047.72,3248.31 4040.52,3247.11C4033.32,3245.91 4028.72,3246.31 4026.72,3248.31C4024.72,3250.31 4013.92,3250.7 3994.32,3249.51C3976.72,3248.31 3966.02,3247.41 3962.22,3246.81C3958.42,3246.2 3956.52,3244.7 3956.52,3242.31C3956.52,3239.11 3958.02,3237.01 3961.02,3236.01C3964.02,3235.01 3970.32,3234.51 3979.92,3234.51L3998.52,3234.51L3997.32,3229.11C3996.92,3228.31 3996.52,3226.91 3996.12,3224.91C3995.72,3222.91 3995.52,3221.7 3995.52,3221.31C3994.72,3219.7 3994.32,3217.51 3994.32,3214.7C3994.32,3211.51 3993.12,3208.91 3990.72,3206.91C3987.92,3204.91 3986.52,3202.31 3986.52,3199.11C3986.52,3195.51 3984.52,3187.31 3980.52,3174.51C3976.12,3162.11 3973.72,3152.11 3973.32,3144.51C3972.52,3137.31 3969.32,3128.51 3963.72,3118.11L3955.32,3101.91L3918.12,3133.7C3897.32,3151.7 3872.32,3173.7 3843.12,3199.7C3819.52,3221.31 3804.52,3234.51 3798.12,3239.31C3792.52,3242.91 3789.72,3245.31 3789.72,3246.51C3789.72,3247.31 3789.02,3247.7 3787.62,3247.7C3786.22,3247.7 3784.72,3248.7 3783.12,3250.7C3781.52,3252.7 3779.72,3253.11 3777.72,3251.91C3774.52,3250.7 3762.52,3250.91 3741.72,3252.51L3724.32,3253.7L3724.32,3248.31C3724.32,3245.51 3724.72,3243.81 3725.52,3243.2C3726.32,3242.61 3729.12,3242.11 3733.92,3241.7C3745.12,3240.11 3757.72,3232.31 3771.72,3218.31C3777.72,3211.91 3782.22,3206.01 3785.22,3200.61C3788.22,3195.2 3795.52,3179.11 3807.12,3152.31C3825.92,3107.91 3844.92,3058.11 3864.12,3002.91C3880.52,2954.91 3889.72,2920.91 3891.72,2900.91C3892.92,2885.7 3893.92,2876.61 3894.72,2873.61C3895.52,2870.61 3897.32,2869.11 3900.12,2869.11C3905.32,2869.11 3907.92,2860.51 3907.92,2843.3C3907.92,2835.7 3908.72,2831.51 3910.32,2830.7ZM3913.32,2995.7C3910.12,2989.7 3906.92,2982.7 3903.72,2974.7L3899.52,2965.11L3894.12,2983.11C3890.92,2994.3 3885.12,3011.3 3876.72,3034.11C3875.12,3038.91 3872.92,3044.91 3870.12,3052.11C3867.32,3059.31 3865.02,3065.51 3863.22,3070.7C3861.42,3075.91 3860.12,3079.7 3859.32,3082.11C3855.32,3093.31 3849.92,3106.31 3843.12,3121.11C3826.32,3159.51 3818.12,3178.91 3818.52,3179.31C3818.92,3179.7 3825.12,3175.11 3837.12,3165.51C3848.32,3156.31 3869.92,3140.11 3901.92,3116.91L3948.72,3082.11L3942.12,3064.11C3933.32,3038.91 3923.72,3016.11 3913.32,2995.7Z" style="fill:white;fill-rule:nonzero;stroke:black;stroke-width:8.33px;"/>
            <path d="M4227.72,2818.7C4228.92,2816.7 4229.92,2815.7 4230.72,2815.7C4231.52,2815.7 4233.32,2816.51 4236.12,2818.11C4239.72,2820.51 4241.72,2823.01 4242.12,2825.61C4242.52,2828.2 4243.32,2829.51 4244.52,2829.51C4246.12,2829.51 4249.92,2831.11 4255.92,2834.3C4262.72,2837.51 4267.52,2841.51 4270.32,2846.3C4273.52,2851.51 4276.12,2854.11 4278.12,2854.11C4280.52,2854.11 4282.92,2855.8 4285.32,2859.2C4287.72,2862.61 4291.72,2869.91 4297.32,2881.11C4304.12,2894.7 4313.72,2909.7 4326.12,2926.11C4338.52,2942.91 4355.32,2967.3 4376.52,2999.3C4398.12,3031.7 4410.52,3049.7 4413.72,3053.3C4416.92,3056.91 4419.52,3061.11 4421.52,3065.91C4423.92,3070.7 4425.52,3073.11 4426.32,3073.11C4427.52,3073.11 4428.12,3075.31 4428.12,3079.7C4428.12,3084.11 4432.72,3091.7 4441.92,3102.51C4450.72,3113.31 4455.52,3117.91 4456.32,3116.31C4457.12,3114.7 4457.92,3106.31 4458.72,3091.11C4459.52,3075.91 4461.12,3063.51 4463.52,3053.91C4465.92,3043.91 4466.52,3034.11 4465.32,3024.51C4464.12,3014.51 4463.92,2997.11 4464.72,2972.3C4465.92,2927.91 4465.72,2891.3 4464.12,2862.51C4463.72,2858.11 4461.22,2854.3 4456.62,2851.11C4452.02,2847.91 4446.12,2846.11 4438.92,2845.7C4430.92,2844.91 4426.32,2843.51 4425.12,2841.51C4423.12,2839.11 4422.32,2837.41 4422.72,2836.41C4423.12,2835.41 4425.32,2833.91 4429.32,2831.91C4432.12,2829.91 4436.22,2828.8 4441.62,2828.61C4447.02,2828.41 4461.52,2828.3 4485.12,2828.3L4534.92,2828.91L4534.92,2833.11C4534.92,2835.51 4533.62,2837.41 4531.02,2838.8C4528.42,2840.2 4523.72,2841.51 4516.92,2842.7C4508.92,2843.91 4503.72,2845.41 4501.32,2847.2C4498.92,2849.01 4497.92,2851.91 4498.32,2855.91C4499.12,2860.3 4498.52,2863.7 4496.52,2866.11C4494.52,2868.11 4493.12,2880.91 4492.32,2904.51C4491.12,2927.7 4490.72,2961.3 4491.12,3005.3C4491.52,3049.3 4492.32,3079.51 4493.52,3095.91C4494.32,3106.31 4495.32,3119.11 4496.52,3134.31C4496.52,3136.31 4496.82,3140.41 4497.42,3146.61C4498.02,3152.81 4498.32,3157.11 4498.32,3159.51C4499.12,3167.51 4498.72,3172.31 4497.12,3173.91C4494.72,3177.11 4493.32,3194.7 4492.92,3226.7C4492.92,3236.7 4492.52,3242.11 4491.72,3242.91C4490.12,3244.51 4486.62,3245.31 4481.22,3245.31C4475.82,3245.31 4472.02,3244.7 4469.82,3243.51C4467.62,3242.31 4465.42,3239.91 4463.22,3236.31C4461.02,3232.7 4456.52,3224.11 4449.72,3210.51C4444.12,3199.31 4436.92,3186.7 4428.12,3172.7C4420.12,3159.91 4400.62,3130.11 4369.62,3083.31C4338.62,3036.51 4319.12,3007.91 4311.12,2997.51C4304.32,2987.51 4297.72,2977.91 4291.32,2968.7C4271.72,2939.91 4256.72,2918.7 4246.32,2905.11C4244.72,2903.11 4243.72,2904.11 4243.32,2908.11C4242.92,2911.3 4242.32,2921.7 4241.52,2939.3C4241.12,2965.3 4241.12,2978.7 4241.52,2979.51C4241.92,2980.3 4242.32,3020.91 4242.72,3101.31L4243.32,3221.31L4251.72,3224.91C4257.32,3226.91 4260.72,3227.7 4261.92,3227.31C4262.32,3227.31 4262.62,3227.61 4262.82,3228.2C4263.02,3228.81 4263.12,3229.7 4263.12,3230.91C4263.12,3233.31 4264.92,3234.51 4268.52,3234.51C4272.12,3234.51 4275.52,3235.11 4278.72,3236.31C4281.92,3237.51 4283.12,3239.91 4282.32,3243.51C4281.52,3245.91 4280.62,3247.41 4279.62,3248.01C4278.62,3248.61 4276.12,3248.7 4272.12,3248.31L4255.92,3248.31L4193.52,3248.31L4188.12,3247.7C4186.92,3247.7 4182.52,3247.7 4174.92,3247.7C4165.32,3247.7 4160.32,3245.91 4159.92,3242.31C4159.92,3238.31 4165.32,3235.91 4176.12,3235.11C4189.72,3234.7 4200.32,3231.7 4207.92,3226.11L4216.32,3220.7L4216.32,3087.51C4216.32,2997.51 4215.92,2938.91 4215.12,2911.7L4213.92,2869.11L4206.12,2864.91C4201.72,2862.51 4196.12,2858.91 4189.32,2854.11C4182.92,2849.3 4176.72,2846.91 4170.72,2846.91C4165.52,2846.91 4162.22,2846.2 4160.82,2844.8C4159.42,2843.41 4159.12,2840.7 4159.92,2836.7L4161.12,2830.7L4191.72,2829.51C4212.12,2829.11 4222.72,2827.91 4223.52,2825.91C4224.32,2824.3 4225.72,2821.91 4227.72,2818.7Z" style="fill:white;fill-rule:nonzero;stroke:black;stroke-width:8.33px;"/>
        </g>
        <g transform="matrix(1,0,0,1,651.629,-810.525)">
            <path d="M1287.72,2828.3C1291.32,2826.7 1305.12,2826.11 1329.12,2826.51C1353.12,2826.91 1368.92,2828.3 1376.52,2830.7C1394.52,2835.51 1410.12,2843.7 1423.32,2855.3C1429.32,2860.51 1432.92,2863.11 1434.12,2863.11C1435.32,2863.11 1436.62,2859.41 1438.02,2852.01C1439.42,2844.61 1442.12,2838.7 1446.12,2834.3C1449.72,2830.3 1452.32,2828.2 1453.92,2828.01C1455.52,2827.8 1457.72,2829.3 1460.52,2832.51C1462.92,2834.91 1464.22,2836.8 1464.42,2838.2C1464.62,2839.61 1464.12,2843.11 1462.92,2848.7C1461.32,2856.3 1460.72,2877.7 1461.12,2912.91C1461.12,2937.3 1461.02,2952.2 1460.82,2957.61C1460.62,2963.01 1459.72,2966.3 1458.12,2967.51C1456.12,2969.11 1453.52,2970.01 1450.32,2970.2C1447.12,2970.41 1444.52,2969.91 1442.52,2968.7C1441.32,2967.51 1439.32,2964.3 1436.52,2959.11C1434.52,2955.11 1433.22,2951.3 1432.62,2947.7C1432.02,2944.11 1431.92,2935.91 1432.32,2923.11C1432.32,2910.3 1432.12,2902.41 1431.72,2899.41C1431.32,2896.41 1430.12,2893.7 1428.12,2891.3C1424.52,2886.91 1420.52,2881.91 1416.12,2876.3C1406.92,2863.91 1395.22,2854.3 1381.02,2847.51C1366.82,2840.7 1351.72,2837.3 1335.72,2837.3C1324.12,2837.3 1311.42,2839.2 1297.62,2843.01C1283.82,2846.8 1276.92,2850.51 1276.92,2854.11C1276.92,2858.11 1269.92,2864.91 1255.92,2874.51C1241.92,2883.3 1231.12,2893.3 1223.52,2904.51C1218.72,2912.11 1215.52,2918.91 1213.92,2924.91C1212.32,2930.91 1210.32,2944.7 1207.92,2966.3C1205.12,2986.3 1203.52,3010.8 1203.12,3039.8C1202.72,3068.81 1203.52,3090.91 1205.52,3106.11C1206.72,3115.31 1208.52,3124.01 1210.92,3132.2C1213.32,3140.41 1215.32,3144.51 1216.92,3144.51C1218.12,3144.51 1218.72,3145.7 1218.72,3148.11C1218.72,3150.51 1220.02,3153.31 1222.62,3156.51C1225.22,3159.7 1226.32,3161.91 1225.92,3163.11C1225.52,3164.31 1228.12,3169.01 1233.72,3177.2C1239.32,3185.41 1242.62,3189.51 1243.62,3189.51C1244.62,3189.51 1245.12,3190.51 1245.12,3192.51C1245.12,3193.7 1248.02,3197.01 1253.82,3202.41C1259.62,3207.81 1263.32,3210.51 1264.92,3210.51C1266.52,3210.51 1267.72,3211.7 1268.52,3214.11C1269.32,3216.11 1273.82,3219.31 1282.02,3223.7C1290.22,3228.11 1299.12,3232.11 1308.72,3235.7C1315.52,3238.11 1320.52,3239.51 1323.72,3239.91C1326.92,3240.31 1332.92,3240.11 1341.72,3239.31C1353.72,3238.91 1361.12,3237.51 1363.92,3235.11C1367.52,3231.91 1372.52,3228.51 1378.92,3224.91C1386.92,3220.51 1394.12,3214.91 1400.52,3208.11L1410.72,3197.91L1410.72,3181.11C1410.32,3169.11 1410.72,3160.31 1411.92,3154.7C1412.72,3149.51 1412.82,3146.2 1412.22,3144.81C1411.62,3143.41 1409.72,3141.11 1406.52,3137.91C1403.72,3135.11 1401.32,3133.31 1399.32,3132.51C1397.32,3131.7 1393.92,3131.31 1389.12,3131.31C1381.92,3131.31 1377.92,3130.51 1377.12,3128.91C1376.32,3126.91 1372.92,3125.51 1366.92,3124.7C1357.32,3123.51 1355.12,3120.7 1360.32,3116.31C1362.32,3114.7 1376.92,3114.31 1404.12,3115.11C1437.72,3116.31 1461.32,3116.51 1474.92,3115.7C1500.52,3113.31 1513.32,3114.7 1513.32,3119.91C1513.32,3126.31 1506.32,3130.31 1492.32,3131.91C1483.52,3132.7 1477.12,3134.51 1473.12,3137.31C1469.12,3139.7 1466.92,3142.61 1466.52,3146.01C1466.12,3149.41 1466.72,3160.91 1468.32,3180.51C1469.12,3194.51 1468.72,3202.7 1467.12,3205.11C1465.52,3206.7 1464.72,3222.51 1464.72,3252.51C1464.72,3283.31 1464.92,3301.7 1465.32,3307.7C1465.72,3313.31 1465.42,3318.51 1464.42,3323.31C1463.42,3328.11 1461.92,3330.51 1459.92,3330.51C1458.72,3330.51 1457.92,3332.7 1457.52,3337.11C1457.52,3350.7 1455.92,3357.7 1452.72,3358.11C1450.72,3358.51 1449.72,3359.31 1449.72,3360.51C1449.72,3361.31 1447.52,3362.11 1443.12,3362.91C1438.72,3363.7 1435.32,3363.7 1432.92,3362.91C1429.72,3362.11 1427.62,3358.01 1426.62,3350.61C1425.62,3343.2 1425.12,3328.31 1425.12,3305.91C1425.12,3277.91 1424.12,3262.7 1422.12,3260.31C1420.12,3257.91 1418.72,3252.7 1417.92,3244.7C1417.52,3236.31 1416.72,3231.51 1415.52,3230.31C1414.72,3229.11 1412.92,3230.51 1410.12,3234.51C1406.52,3239.7 1397.22,3244.61 1382.22,3249.2C1367.22,3253.81 1349.72,3257.11 1329.72,3259.11C1313.32,3260.7 1302.52,3261.41 1297.32,3261.2C1292.12,3261.01 1288.52,3259.7 1286.52,3257.31C1284.52,3254.91 1278.32,3252.7 1267.92,3250.7C1263.92,3249.91 1260.72,3249.2 1258.32,3248.61C1255.92,3248.01 1254.02,3247.31 1252.62,3246.51C1251.22,3245.7 1250.32,3244.91 1249.92,3244.11C1249.52,3243.31 1249.52,3242.51 1249.92,3241.7C1250.32,3241.31 1250.12,3240.91 1249.32,3240.51C1248.52,3240.11 1247.32,3239.7 1245.72,3239.31C1236.52,3236.91 1224.72,3230.91 1210.32,3221.31C1195.52,3211.31 1183.12,3198.91 1173.12,3184.11C1167.12,3175.31 1162.72,3168.91 1159.92,3164.91C1157.12,3161.31 1154.32,3155.41 1151.52,3147.2C1148.72,3139.01 1146.32,3134.51 1144.32,3133.7C1139.92,3132.11 1135.72,3123.51 1131.72,3107.91C1130.12,3100.31 1128.92,3087.51 1128.12,3069.51C1127.72,3051.11 1126.92,3041.11 1125.72,3039.51C1124.92,3037.91 1124.52,3030.51 1124.52,3017.3C1124.52,3008.51 1124.92,3001.8 1125.72,2997.2C1126.52,2992.61 1128.72,2985.3 1132.32,2975.3C1139.92,2953.3 1149.12,2935.91 1159.92,2923.11C1167.12,2913.91 1172.52,2906.91 1176.12,2902.11C1182.12,2893.7 1190.92,2884.41 1202.52,2874.2C1214.12,2864.01 1222.32,2858.11 1227.12,2856.51C1229.52,2856.11 1234.92,2853.3 1243.32,2848.11C1252.12,2843.3 1260.92,2839.3 1269.72,2836.11C1279.72,2832.11 1285.72,2829.51 1287.72,2828.3Z" style="fill:white;fill-rule:nonzero;stroke:black;stroke-width:8.33px;"/>
            <path d="M1632.12,2818.7C1633.32,2816.7 1634.32,2815.7 1635.12,2815.7C1635.92,2815.7 1637.72,2816.51 1640.52,2818.11C1644.12,2820.51 1646.12,2823.01 1646.52,2825.61C1646.92,2828.2 1647.72,2829.51 1648.92,2829.51C1650.52,2829.51 1654.32,2831.11 1660.32,2834.3C1667.12,2837.51 1671.92,2841.51 1674.72,2846.3C1677.92,2851.51 1680.52,2854.11 1682.52,2854.11C1684.92,2854.11 1687.32,2855.8 1689.72,2859.2C1692.12,2862.61 1696.12,2869.91 1701.72,2881.11C1708.52,2894.7 1718.12,2909.7 1730.52,2926.11C1742.92,2942.91 1759.72,2967.3 1780.92,2999.3C1802.52,3031.7 1814.92,3049.7 1818.12,3053.3C1821.32,3056.91 1823.92,3061.11 1825.92,3065.91C1828.32,3070.7 1829.92,3073.11 1830.72,3073.11C1831.92,3073.11 1832.52,3075.31 1832.52,3079.7C1832.52,3084.11 1837.12,3091.7 1846.32,3102.51C1855.12,3113.31 1859.92,3117.91 1860.72,3116.31C1861.52,3114.7 1862.32,3106.31 1863.12,3091.11C1863.92,3075.91 1865.52,3063.51 1867.92,3053.91C1870.32,3043.91 1870.92,3034.11 1869.72,3024.51C1868.52,3014.51 1868.32,2997.11 1869.12,2972.3C1870.32,2927.91 1870.12,2891.3 1868.52,2862.51C1868.12,2858.11 1865.62,2854.3 1861.02,2851.11C1856.42,2847.91 1850.52,2846.11 1843.32,2845.7C1835.32,2844.91 1830.72,2843.51 1829.52,2841.51C1827.52,2839.11 1826.72,2837.41 1827.12,2836.41C1827.52,2835.41 1829.72,2833.91 1833.72,2831.91C1836.52,2829.91 1840.62,2828.8 1846.02,2828.61C1851.42,2828.41 1865.92,2828.3 1889.52,2828.3L1939.32,2828.91L1939.32,2833.11C1939.32,2835.51 1938.02,2837.41 1935.42,2838.8C1932.82,2840.2 1928.12,2841.51 1921.32,2842.7C1913.32,2843.91 1908.12,2845.41 1905.72,2847.2C1903.32,2849.01 1902.32,2851.91 1902.72,2855.91C1903.52,2860.3 1902.92,2863.7 1900.92,2866.11C1898.92,2868.11 1897.52,2880.91 1896.72,2904.51C1895.52,2927.7 1895.12,2961.3 1895.52,3005.3C1895.92,3049.3 1896.72,3079.51 1897.92,3095.91C1898.72,3106.31 1899.72,3119.11 1900.92,3134.31C1900.92,3136.31 1901.22,3140.41 1901.82,3146.61C1902.42,3152.81 1902.72,3157.11 1902.72,3159.51C1903.52,3167.51 1903.12,3172.31 1901.52,3173.91C1899.12,3177.11 1897.72,3194.7 1897.32,3226.7C1897.32,3236.7 1896.92,3242.11 1896.12,3242.91C1894.52,3244.51 1891.02,3245.31 1885.62,3245.31C1880.22,3245.31 1876.42,3244.7 1874.22,3243.51C1872.02,3242.31 1869.82,3239.91 1867.62,3236.31C1865.42,3232.7 1860.92,3224.11 1854.12,3210.51C1848.52,3199.31 1841.32,3186.7 1832.52,3172.7C1824.52,3159.91 1805.02,3130.11 1774.02,3083.31C1743.02,3036.51 1723.52,3007.91 1715.52,2997.51C1708.72,2987.51 1702.12,2977.91 1695.72,2968.7C1676.12,2939.91 1661.12,2918.7 1650.72,2905.11C1649.12,2903.11 1648.12,2904.11 1647.72,2908.11C1647.32,2911.3 1646.72,2921.7 1645.92,2939.3C1645.52,2965.3 1645.52,2978.7 1645.92,2979.51C1646.32,2980.3 1646.72,3020.91 1647.12,3101.31L1647.72,3221.31L1656.12,3224.91C1661.72,3226.91 1665.12,3227.7 1666.32,3227.31C1666.72,3227.31 1667.02,3227.61 1667.22,3228.2C1667.42,3228.81 1667.52,3229.7 1667.52,3230.91C1667.52,3233.31 1669.32,3234.51 1672.92,3234.51C1676.52,3234.51 1679.92,3235.11 1683.12,3236.31C1686.32,3237.51 1687.52,3239.91 1686.72,3243.51C1685.92,3245.91 1685.02,3247.41 1684.02,3248.01C1683.02,3248.61 1680.52,3248.7 1676.52,3248.31L1660.32,3248.31L1597.92,3248.31L1592.52,3247.7C1591.32,3247.7 1586.92,3247.7 1579.32,3247.7C1569.72,3247.7 1564.72,3245.91 1564.32,3242.31C1564.32,3238.31 1569.72,3235.91 1580.52,3235.11C1594.12,3234.7 1604.72,3231.7 1612.32,3226.11L1620.72,3220.7L1620.72,3087.51C1620.72,2997.51 1620.32,2938.91 1619.52,2911.7L1618.32,2869.11L1610.52,2864.91C1606.12,2862.51 1600.52,2858.91 1593.72,2854.11C1587.32,2849.3 1581.12,2846.91 1575.12,2846.91C1569.92,2846.91 1566.62,2846.2 1565.22,2844.8C1563.82,2843.41 1563.52,2840.7 1564.32,2836.7L1565.52,2830.7L1596.12,2829.51C1616.52,2829.11 1627.12,2827.91 1627.92,2825.91C1628.72,2824.3 1630.12,2821.91 1632.12,2818.7Z" style="fill:white;fill-rule:nonzero;stroke:black;stroke-width:8.33px;"/>
            <path d="M2158.32,2830.7C2160.72,2829.91 2164.72,2829.61 2170.32,2829.8C2175.92,2830.01 2179.12,2830.7 2179.92,2831.91C2181.92,2834.7 2184.32,2841.91 2187.12,2853.51C2189.92,2865.11 2190.72,2871.3 2189.52,2872.11C2188.32,2872.51 2188.02,2876.01 2188.62,2882.61C2189.22,2889.2 2190.12,2892.7 2191.32,2893.11C2192.52,2893.91 2193.72,2897.11 2194.92,2902.7C2196.52,2909.51 2199.92,2919.51 2205.12,2932.7C2210.32,2945.91 2213.52,2953.11 2214.72,2954.3C2216.72,2955.51 2218.92,2959.91 2221.32,2967.51C2224.12,2975.11 2226.52,2979.51 2228.52,2980.7C2230.52,2982.3 2232.12,2986.11 2233.32,2992.11C2234.52,2998.51 2236.52,3004.7 2239.32,3010.7C2242.52,3017.11 2244.12,3021.91 2244.12,3025.11C2244.12,3027.11 2244.72,3030.41 2245.92,3035.01C2247.12,3039.61 2248.12,3042.3 2248.92,3043.11C2249.32,3043.11 2253.32,3040.51 2260.92,3035.3C2268.52,3030.11 2277.22,3023.8 2287.02,3016.41C2296.82,3009.01 2304.52,3003.11 2310.12,2998.7C2341.32,2973.91 2356.92,2966.7 2356.92,2977.11C2356.92,2979.51 2355.42,2982.2 2352.42,2985.2C2349.42,2988.2 2342.92,2993.11 2332.92,2999.91C2305.32,3019.51 2280.92,3038.11 2259.72,3055.7L2254.92,3059.91L2260.92,3077.31C2265.32,3091.31 2272.12,3108.11 2281.32,3127.7C2287.32,3140.91 2291.12,3151.51 2292.72,3159.51C2294.32,3166.7 2297.72,3176.01 2302.92,3187.41C2308.12,3198.81 2311.72,3204.51 2313.72,3204.51C2314.92,3204.51 2317.02,3207.2 2320.02,3212.61C2323.02,3218.01 2324.52,3221.91 2324.52,3224.31C2324.52,3225.91 2325.32,3227.11 2326.92,3227.91C2328.52,3228.31 2328.12,3229.51 2325.72,3231.51C2323.72,3233.51 2324.12,3234.51 2326.92,3234.51C2328.52,3234.51 2331.32,3234.51 2335.32,3234.51C2344.12,3234.51 2349.32,3235.51 2350.92,3237.51C2355.32,3242.7 2352.52,3246.11 2342.52,3247.7C2337.32,3248.51 2330.92,3248.31 2323.32,3247.11C2313.72,3245.91 2307.32,3245.91 2304.12,3247.11C2300.92,3248.31 2295.72,3248.31 2288.52,3247.11C2281.32,3245.91 2276.72,3246.31 2274.72,3248.31C2272.72,3250.31 2261.92,3250.7 2242.32,3249.51C2224.72,3248.31 2214.02,3247.41 2210.22,3246.81C2206.42,3246.2 2204.52,3244.7 2204.52,3242.31C2204.52,3239.11 2206.02,3237.01 2209.02,3236.01C2212.02,3235.01 2218.32,3234.51 2227.92,3234.51L2246.52,3234.51L2245.32,3229.11C2244.92,3228.31 2244.52,3226.91 2244.12,3224.91C2243.72,3222.91 2243.52,3221.7 2243.52,3221.31C2242.72,3219.7 2242.32,3217.51 2242.32,3214.7C2242.32,3211.51 2241.12,3208.91 2238.72,3206.91C2235.92,3204.91 2234.52,3202.31 2234.52,3199.11C2234.52,3195.51 2232.52,3187.31 2228.52,3174.51C2224.12,3162.11 2221.72,3152.11 2221.32,3144.51C2220.52,3137.31 2217.32,3128.51 2211.72,3118.11L2203.32,3101.91L2166.12,3133.7C2145.32,3151.7 2120.32,3173.7 2091.12,3199.7C2067.52,3221.31 2052.52,3234.51 2046.12,3239.31C2040.52,3242.91 2037.72,3245.31 2037.72,3246.51C2037.72,3247.31 2037.02,3247.7 2035.62,3247.7C2034.22,3247.7 2032.72,3248.7 2031.12,3250.7C2029.52,3252.7 2027.72,3253.11 2025.72,3251.91C2022.52,3250.7 2010.52,3250.91 1989.72,3252.51L1972.32,3253.7L1972.32,3248.31C1972.32,3245.51 1972.72,3243.81 1973.52,3243.2C1974.32,3242.61 1977.12,3242.11 1981.92,3241.7C1993.12,3240.11 2005.72,3232.31 2019.72,3218.31C2025.72,3211.91 2030.22,3206.01 2033.22,3200.61C2036.22,3195.2 2043.52,3179.11 2055.12,3152.31C2073.92,3107.91 2092.92,3058.11 2112.12,3002.91C2128.52,2954.91 2137.72,2920.91 2139.72,2900.91C2140.92,2885.7 2141.92,2876.61 2142.72,2873.61C2143.52,2870.61 2145.32,2869.11 2148.12,2869.11C2153.32,2869.11 2155.92,2860.51 2155.92,2843.3C2155.92,2835.7 2156.72,2831.51 2158.32,2830.7ZM2161.32,2995.7C2158.12,2989.7 2154.92,2982.7 2151.72,2974.7L2147.52,2965.11L2142.12,2983.11C2138.92,2994.3 2133.12,3011.3 2124.72,3034.11C2123.12,3038.91 2120.92,3044.91 2118.12,3052.11C2115.32,3059.31 2113.02,3065.51 2111.22,3070.7C2109.42,3075.91 2108.12,3079.7 2107.32,3082.11C2103.32,3093.31 2097.92,3106.31 2091.12,3121.11C2074.32,3159.51 2066.12,3178.91 2066.52,3179.31C2066.92,3179.7 2073.12,3175.11 2085.12,3165.51C2096.32,3156.31 2117.92,3140.11 2149.92,3116.91L2196.72,3082.11L2190.12,3064.11C2181.32,3038.91 2171.72,3016.11 2161.32,2995.7Z" style="fill:white;fill-rule:nonzero;stroke:black;stroke-width:8.33px;"/>
            <path d="M2575.92,2828.3C2577.92,2823.51 2589.72,2824.91 2611.32,2832.51C2629.72,2838.51 2645.12,2846.7 2657.52,2857.11C2672.32,2869.11 2682.92,2881.51 2689.32,2894.3C2692.52,2900.7 2694.42,2905.3 2695.02,2908.11C2695.62,2910.91 2695.72,2916.51 2695.32,2924.91C2695.32,2934.91 2694.12,2943.2 2691.72,2949.8C2689.32,2956.41 2684.92,2963.3 2678.52,2970.51C2670.92,2979.7 2660.52,2988.8 2647.32,2997.8C2634.12,3006.8 2623.12,3012.3 2614.32,3014.3C2610.32,3015.11 2609.12,3016.51 2610.72,3018.51C2611.92,3020.11 2612.12,3020.91 2611.32,3020.91C2610.52,3020.91 2610.72,3021.7 2611.92,3023.3C2613.12,3024.91 2614.12,3029.11 2614.92,3035.91C2615.72,3042.7 2617.02,3047.11 2618.82,3049.11C2620.62,3051.11 2626.02,3060.2 2635.02,3076.41C2644.02,3092.61 2651.12,3106.7 2656.32,3118.7C2669.12,3144.7 2677.42,3161.01 2681.22,3167.61C2685.02,3174.2 2690.72,3181.51 2698.32,3189.51C2721.52,3214.7 2734.32,3226.11 2736.72,3223.7C2737.92,3222.51 2736.52,3220.31 2732.52,3217.11C2726.52,3211.51 2725.02,3205.11 2728.02,3197.91C2731.02,3190.7 2736.72,3187.11 2745.12,3187.11C2759.12,3187.11 2767.12,3193.01 2769.12,3204.81C2771.12,3216.61 2766.32,3228.7 2754.72,3241.11C2751.12,3245.11 2749.32,3247.51 2749.32,3248.31C2749.32,3249.11 2748.72,3249.61 2747.52,3249.81C2746.32,3250.01 2745.02,3249.91 2743.62,3249.51C2742.22,3249.11 2741.32,3248.51 2740.92,3247.7C2740.12,3246.51 2738.32,3246.31 2735.52,3247.11C2732.72,3247.51 2726.72,3247.91 2717.52,3248.31C2711.52,3248.7 2707.22,3248.7 2704.62,3248.31C2702.02,3247.91 2698.32,3246.31 2693.52,3243.51C2679.52,3236.31 2668.52,3228.7 2660.52,3220.7C2655.32,3215.11 2649.52,3206.31 2643.12,3194.31C2638.72,3187.11 2632.12,3176.7 2623.32,3163.11C2612.52,3146.7 2603.12,3131.7 2595.12,3118.11C2586.72,3103.31 2580.92,3094.51 2577.72,3091.7C2574.12,3088.91 2569.92,3082.31 2565.12,3071.91C2559.92,3061.11 2553.72,3052.11 2546.52,3044.91C2539.32,3037.7 2535.72,3033.51 2535.72,3032.3C2535.72,3031.11 2533.72,3030.51 2529.72,3030.51L2523.12,3030.51L2523.72,3049.11C2524.12,3068.31 2525.22,3094.41 2527.02,3127.41C2528.82,3160.41 2530.12,3177.51 2530.92,3178.7C2531.72,3179.91 2532.32,3185.91 2532.72,3196.7C2533.12,3208.31 2533.72,3214.7 2534.52,3215.91C2536.12,3218.31 2540.42,3221.41 2547.42,3225.2C2554.42,3229.01 2559.92,3231.31 2563.92,3232.11C2571.12,3233.31 2575.32,3235.11 2576.52,3237.51C2577.72,3239.91 2576.12,3243.7 2571.72,3248.91C2568.52,3253.31 2565.32,3255.11 2562.12,3254.31C2558.52,3253.51 2547.42,3253.2 2528.82,3253.41C2510.22,3253.61 2500.32,3254.11 2499.12,3254.91C2498.32,3255.7 2487.42,3256.41 2466.42,3257.01C2445.42,3257.61 2430.12,3257.7 2420.52,3257.31C2418.12,3257.31 2417.12,3255.51 2417.52,3251.91C2417.92,3249.91 2418.72,3248.51 2419.92,3247.7C2421.12,3246.91 2423.72,3245.91 2427.72,3244.7C2444.12,3241.11 2456.12,3231.91 2463.72,3217.11C2466.52,3211.51 2466.92,3192.31 2464.92,3159.51C2464.12,3146.31 2463.72,3103.91 2463.72,3032.3C2463.32,2959.11 2462.72,2921.7 2461.92,2920.11C2461.12,2918.91 2460.92,2908.3 2461.32,2888.3L2461.92,2857.7L2457.12,2857.11C2454.32,2856.3 2453.52,2854.7 2454.72,2852.3C2455.52,2851.11 2455.62,2850.11 2455.02,2849.3C2454.42,2848.51 2452.72,2847.3 2449.92,2845.7C2447.12,2844.91 2441.02,2843.61 2431.62,2841.8C2422.22,2840.01 2415.92,2839.11 2412.72,2839.11C2411.92,2839.11 2411.72,2837.7 2412.12,2834.91C2412.52,2832.91 2414.02,2831.7 2416.62,2831.3C2419.22,2830.91 2428.52,2830.91 2444.52,2831.3C2508.92,2832.11 2542.92,2831.51 2546.52,2829.51C2548.92,2827.91 2554.32,2827.7 2562.72,2828.91C2571.12,2830.11 2575.52,2829.91 2575.92,2828.3ZM2564.52,2849.3C2555.72,2848.51 2549.52,2847.91 2545.92,2847.51C2542.32,2847.11 2538.12,2847.41 2533.32,2848.41C2528.52,2849.41 2525.42,2850.51 2524.02,2851.7C2522.62,2852.91 2522.72,2857.91 2524.32,2866.7C2525.52,2874.3 2526.12,2881.91 2526.12,2889.51C2526.52,2897.11 2526.22,2906.11 2525.22,2916.51C2524.22,2926.91 2523.12,2932.8 2521.92,2934.2C2520.72,2935.61 2520.12,2944.51 2520.12,2960.91C2520.12,2977.3 2520.72,2990.3 2521.92,2999.91L2522.52,3011.3L2529.72,3011.3C2534.92,3011.3 2548.42,3009.3 2570.22,3005.3C2592.02,3001.3 2603.92,2998.7 2605.92,2997.51C2611.92,2993.51 2618.12,2985.3 2624.52,2972.91C2627.72,2966.11 2629.32,2957.11 2629.32,2945.91C2629.32,2919.11 2626.32,2895.91 2620.32,2876.3C2618.32,2870.3 2616.72,2866.51 2615.52,2864.91C2614.32,2863.3 2611.12,2861.51 2605.92,2859.51C2593.12,2853.91 2579.32,2850.51 2564.52,2849.3Z" style="fill:white;fill-rule:nonzero;stroke:black;stroke-width:8.33px;"/>
            <path d="M2832.72,2827.7C2835.52,2826.51 2844.92,2826.3 2860.92,2827.11C2874.52,2827.91 2890.12,2828.3 2907.72,2828.3C2923.72,2828.3 2932.52,2828.3 2934.12,2828.3C2943.32,2828.3 2951.92,2828.11 2959.92,2827.7C2979.52,2827.7 2989.32,2829.51 2989.32,2833.11C2989.32,2835.11 2987.02,2836.91 2982.42,2838.51C2977.82,2840.11 2972.52,2840.91 2966.52,2840.91C2960.12,2840.91 2955.72,2841.61 2953.32,2843.01C2950.92,2844.41 2947.92,2847.7 2944.32,2852.91C2941.12,2858.11 2938.92,2866.7 2937.72,2878.7C2936.52,2894.3 2935.92,2917.51 2935.92,2948.3C2935.92,2979.11 2936.52,3001.7 2937.72,3016.11C2940.12,3045.7 2939.92,3074.7 2937.12,3103.11C2935.52,3119.11 2935.72,3135.11 2937.72,3151.11C2941.32,3178.31 2941.72,3200.51 2938.92,3217.7C2937.72,3226.11 2937.12,3230.91 2937.12,3232.11C2937.12,3233.7 2945.32,3234.31 2961.72,3233.91C3014.92,3231.91 3054.12,3230.91 3079.32,3230.91L3093.12,3230.91L3109.92,3214.11C3119.12,3204.51 3124.82,3197.31 3127.02,3192.51C3129.22,3187.7 3130.32,3179.11 3130.32,3166.7C3130.32,3157.11 3131.52,3151.7 3133.92,3150.51C3139.52,3147.7 3145.52,3147.7 3151.92,3150.51L3156.72,3152.91L3156.12,3178.7C3156.12,3195.11 3155.52,3206.7 3154.32,3213.51C3153.92,3215.91 3153.32,3218.61 3152.52,3221.61C3151.72,3224.61 3151.02,3227.31 3150.42,3229.7C3149.82,3232.11 3149.12,3234.2 3148.32,3236.01C3147.52,3237.81 3146.82,3239.11 3146.22,3239.91C3145.62,3240.7 3145.12,3241.11 3144.72,3241.11C3143.92,3243.51 3143.52,3245.11 3143.52,3245.91C3143.52,3249.51 3142.72,3251.7 3141.12,3252.51C3140.32,3252.91 3129.62,3253.31 3109.02,3253.7C3088.42,3254.11 3077.32,3254.01 3075.72,3253.41C3074.12,3252.81 3038.92,3252.61 2970.12,3252.81C2901.32,3253.01 2864.52,3253.51 2859.72,3254.31C2847.32,3255.51 2841.52,3254.31 2842.32,3250.7C2842.32,3250.31 2842.32,3249.91 2842.32,3249.51C2843.12,3248.31 2842.72,3246.7 2841.12,3244.7C2838.32,3241.11 2840.72,3238.7 2848.32,3237.51C2851.52,3236.7 2855.72,3236.31 2860.92,3236.31C2870.52,3236.31 2875.12,3235.91 2874.72,3235.11C2873.52,3233.51 2873.22,3213.11 2873.82,3173.91C2874.42,3134.7 2875.32,3114.31 2876.52,3112.7C2877.72,3110.7 2878.92,3098.7 2880.12,3076.7C2881.32,3054.7 2881.72,3034.7 2881.32,3016.7C2880.92,2966.3 2878.32,2924.3 2873.52,2890.7C2870.72,2871.51 2868.72,2860.11 2867.52,2856.51C2866.32,2852.91 2864.12,2850.51 2860.92,2849.3C2856.52,2847.3 2854.32,2845.91 2854.32,2845.11C2854.32,2843.91 2850.32,2842.51 2842.32,2840.91C2830.72,2838.51 2825.52,2835.7 2826.72,2832.51C2827.12,2830.91 2829.12,2829.3 2832.72,2827.7Z" style="fill:white;fill-rule:nonzero;stroke:black;stroke-width:8.33px;"/>
            <path d="M3295.32,2830.11C3296.12,2828.51 3297.72,2828.51 3300.12,2830.11C3303.32,2831.7 3313.52,2832.51 3330.72,2832.51C3344.32,2832.51 3352.32,2832.7 3354.72,2833.11C3357.12,2833.51 3359.12,2834.91 3360.72,2837.3C3363.12,2840.51 3364.32,2842.7 3364.32,2843.91C3364.32,2846.7 3353.92,2848.11 3333.12,2848.11C3318.32,2848.51 3310.92,2848.91 3310.92,2849.3C3310.92,2849.7 3314.32,2857.3 3321.12,2872.11C3327.92,2886.11 3331.32,2893.51 3331.32,2894.3C3331.32,2895.11 3335.02,2902.01 3342.42,2915.01C3349.82,2928.01 3355.52,2937.91 3359.52,2944.7C3369.92,2961.51 3378.12,2978.7 3384.12,2996.3C3392.92,3021.11 3399.52,3033.7 3403.92,3034.11C3405.12,3034.11 3406.12,3033.3 3406.92,3031.7C3407.72,3030.51 3409.32,3026.51 3411.72,3019.7C3415.72,3006.91 3423.52,2987.91 3435.12,2962.7C3439.92,2951.51 3442.32,2944.7 3442.32,2942.3C3442.32,2940.3 3443.52,2937.61 3445.92,2934.2C3448.32,2930.8 3450.32,2929.11 3451.92,2929.11C3453.52,2929.11 3455.12,2926.51 3456.72,2921.3C3458.72,2914.91 3462.92,2905.11 3469.32,2891.91C3476.12,2877.91 3479.52,2870.3 3479.52,2869.11C3479.52,2868.3 3480.52,2867.11 3482.52,2865.51C3484.52,2863.51 3485.12,2861.7 3484.32,2860.11C3481.52,2853.7 3481.92,2849.7 3485.52,2848.11C3487.12,2847.3 3486.72,2846.91 3484.32,2846.91C3481.52,2846.51 3479.72,2845.91 3478.92,2845.11C3478.12,2844.3 3472.42,2842.8 3461.82,2840.61C3451.22,2838.41 3444.52,2837.3 3441.72,2837.3C3440.52,2837.3 3440.12,2835.91 3440.52,2833.11L3441.12,2828.91L3498.12,2829.51C3537.32,2829.91 3557.72,2831.3 3559.32,2833.7C3560.52,2834.91 3560.32,2836.91 3558.72,2839.7C3557.92,2842.11 3556.72,2843.51 3555.12,2843.91C3553.52,2844.3 3549.92,2844.51 3544.32,2844.51L3532.32,2844.51L3526.32,2854.7C3525.12,2856.7 3523.12,2860.01 3520.32,2864.61C3517.52,2869.2 3515.92,2871.91 3515.52,2872.7C3514.32,2874.3 3508.92,2882.7 3499.32,2897.91C3491.72,2909.11 3487.32,2916.11 3486.12,2918.91C3485.32,2922.51 3477.02,2940.01 3461.22,2971.41C3445.42,3002.8 3436.72,3019.51 3435.12,3021.51C3432.32,3024.7 3428.62,3032.7 3424.02,3045.51C3419.42,3058.3 3417.52,3065.51 3418.32,3067.11C3419.12,3068.31 3418.52,3074.7 3416.52,3086.31C3414.92,3098.31 3414.92,3104.7 3416.52,3105.51C3418.12,3106.31 3418.52,3116.91 3417.72,3137.31C3417.32,3165.7 3417.12,3184.91 3417.12,3194.91L3417.12,3221.31L3423.72,3228.51C3427.32,3231.7 3430.22,3233.81 3432.42,3234.81C3434.62,3235.81 3439.52,3236.7 3447.12,3237.51L3463.32,3239.31L3465.12,3245.91C3465.52,3248.31 3465.52,3250.31 3465.12,3251.91C3464.72,3253.51 3463.22,3254.51 3460.62,3254.91C3458.02,3255.31 3454.52,3255.31 3450.12,3254.91C3445.72,3254.51 3439.92,3253.7 3432.72,3252.51C3422.72,3250.91 3398.72,3249.7 3360.72,3248.91C3323.92,3248.11 3304.92,3247.51 3303.72,3247.11C3302.52,3246.31 3302.32,3244.61 3303.12,3242.01C3303.92,3239.41 3305.12,3237.91 3306.72,3237.51C3310.32,3236.7 3317.72,3236.11 3328.92,3235.7C3338.12,3234.91 3343.72,3234.2 3345.72,3233.61C3347.72,3233.01 3349.52,3231.51 3351.12,3229.11C3353.12,3225.51 3353.92,3221.31 3353.52,3216.51C3353.52,3211.31 3354.12,3202.01 3355.32,3188.61C3356.52,3175.2 3356.92,3158.11 3356.52,3137.31C3356.52,3116.91 3357.12,3102.91 3358.32,3095.31C3359.52,3087.7 3359.52,3083.51 3358.32,3082.7C3357.12,3082.31 3354.72,3077.11 3351.12,3067.11C3347.92,3057.11 3344.12,3048.91 3339.72,3042.51C3335.72,3036.11 3333.72,3032.3 3333.72,3031.11C3333.72,3029.51 3331.72,3028.51 3327.72,3028.11C3324.52,3027.3 3320.52,3023.01 3315.72,3015.2C3310.92,3007.41 3303.52,2993.11 3293.52,2972.3C3284.72,2954.7 3275.52,2936.51 3265.92,2917.7C3255.12,2896.91 3247.92,2882.51 3244.32,2874.51C3237.12,2860.11 3232.52,2851.8 3230.52,2849.61C3228.52,2847.41 3223.52,2846.3 3215.52,2846.3L3201.12,2845.7L3201.12,2837.91L3201.12,2830.7L3226.32,2831.3C3271.52,2832.91 3294.52,2832.51 3295.32,2830.11Z" style="fill:white;fill-rule:nonzero;stroke:black;stroke-width:8.33px;"/>
        </g>
        <g transform="matrix(0.223901,0,0,0.223901,707,2009.76)">
            <path d="M1119.47,2162.81C1113.15,376.626 1738.06,442.478 2500,442.478L2504.46,442.479C3264.38,442.915 3886.84,380.115 3880.53,2162.81L2500,2162.81L1119.47,2162.81Z" style="fill:white;stroke:black;stroke-width:37.22px;stroke-linecap:round;stroke-miterlimit:1.5;"/>
        </g>
        <g transform="matrix(-0.361297,0,0,0.318367,1834.85,1361.21)">
            <ellipse cx="935.6" cy="2797.44" rx="218.781" ry="297.443" style="fill:white;stroke:black;stroke-width:24.47px;stroke-linecap:round;stroke-miterlimit:1.5;"/>
        </g>
        <g transform="matrix(1.29427e-17,0.21137,-0.337363,2.06575e-17,2110.69,1685.13)">
            <path d="M1328.6,1224.66C2345.25,1289.9 2287.53,1744.39 2287.53,1744.39C2287.53,1872.98 2454.16,1977.38 2659.4,1977.38C2864.65,1977.38 3031.28,1872.98 3031.28,1744.39C3031.28,1744.39 2294.74,1038.01 1328.6,1224.66Z" style="fill:white;stroke:black;stroke-width:29.6px;stroke-linecap:round;stroke-miterlimit:1.5;"/>
        </g>
        <g transform="matrix(0.361297,0,0,0.318367,698.655,1361.21)">
            <ellipse cx="935.6" cy="2797.44" rx="218.781" ry="297.443" style="fill:white;stroke:black;stroke-width:24.47px;stroke-linecap:round;stroke-miterlimit:1.5;"/>
        </g>
        <g transform="matrix(-1.29427e-17,0.21137,0.337363,2.06575e-17,422.811,1685.13)">
            <path d="M1328.6,1224.66C2345.25,1289.9 2287.53,1744.39 2287.53,1744.39C2287.53,1872.98 2454.16,1977.38 2659.4,1977.38C2864.65,1977.38 3031.28,1872.98 3031.28,1744.39C3031.28,1744.39 2294.74,1038.01 1328.6,1224.66Z" style="fill:white;stroke:black;stroke-width:29.6px;stroke-linecap:round;stroke-miterlimit:1.5;"/>
        </g>
        <g transform="matrix(2.21231e-17,0.361297,-0.312185,1.91158e-17,2102.61,1596.76)">
            <rect x="2208.56" y="1662.12" width="291.438" height="2030.66" style="fill:white;stroke:black;stroke-width:24.68px;stroke-linecap:round;stroke-miterlimit:1.5;"/>
        </g>
        <g transform="matrix(0.361297,0,0,0.203385,416.158,1748.94)">
            <rect x="2208.56" y="1662.12" width="291.438" height="2030.66" style="fill:white;stroke:black;stroke-width:28.42px;stroke-linecap:round;stroke-miterlimit:1.5;"/>
        </g>
    </g>
</svg>
