<?xml version="1.0" encoding="UTF-8" standalone="no"?>
<!DOCTYPE svg PUBLIC "-//W3C//DTD SVG 1.1//EN" "http://www.w3.org/Graphics/SVG/1.1/DTD/svg11.dtd">
<svg width="100%" height="100%" viewBox="0 0 4828 2230" version="1.1" xmlns="http://www.w3.org/2000/svg" xmlns:xlink="http://www.w3.org/1999/xlink" xml:space="preserve" xmlns:serif="http://www.serif.com/" style="fill-rule:evenodd;clip-rule:evenodd;stroke-linejoin:round;stroke-miterlimit:1.41421;">
    <g transform="matrix(1,0,0,1,-86.2693,-1385.22)">
        <g transform="matrix(2.38702,0,0,2.38702,-2625.45,-4161.54)">
            <text x="1102.32px" y="3249.51px" style="font-family:'Norse-Bold', 'Norse';font-weight:700;font-size:600px;fill:white;stroke:black;stroke-width:6.98px;">NOR<tspan x="1870.92px 2079.72px " y="3249.51px 3249.51px ">TH</tspan>MAN</text>
        </g>
        <g transform="matrix(2.20673,0,0,2.38702,-624.047,-5287.58)">
            <text x="1102.32px" y="3249.51px" style="font-family:'Norse-Bold', 'Norse';font-weight:700;font-size:600px;fill:white;stroke:black;stroke-width:7.25px;">GNARL<tspan x="2271.12px " y="3249.51px ">Y</tspan></text>
        </g>
        <g transform="matrix(1.08966,1.34311e-32,-2.68622e-32,1.08966,-228.513,-224.155)">
            <path d="M933.061,1743.8C982.333,1741.3 1034.36,1742.11 1088.06,1742.11L1089.87,1742.11C1159.63,1742.15 1226.51,1740.87 1288.2,1747.34L1297.24,1767.54L1312.28,1750.31C1469.07,1772.85 1588.58,1855.87 1629.7,2159.01L1613.64,2175.24L1632.4,2180.18C1641.1,2252.87 1645.54,2337.59 1645.18,2436.36L530.943,2436.36C530.621,2345.37 534.358,2266.28 541.754,2197.55L565.297,2176.6L544.761,2171.76C574.501,1935.49 650.307,1828.9 753.867,1780.94L778.201,1770.9C816.552,1756.88 858.243,1749.6 902.447,1745.85L924.6,1767.54L933.061,1743.8Z" style="fill:white;stroke:black;stroke-width:15.3px;stroke-linecap:round;stroke-miterlimit:1.5;"/>
        </g>
        <g transform="matrix(-0.709584,0,0,0.62527,2077.21,205.835)">
            <ellipse cx="935.6" cy="2797.44" rx="218.781" ry="297.443" style="fill:white;stroke:black;stroke-width:24.92px;stroke-linecap:round;stroke-miterlimit:1.5;"/>
        </g>
        <g transform="matrix(0.792816,0.713632,-0.492568,0.547223,1230.98,-142.31)">
            <path d="M1519.24,1513.69C1554.36,1513.69 1581.89,1513.12 1587.39,1559.88C1591.95,1598.64 1555.08,1649.52 1519.96,1649.52C1484.85,1649.52 1446.2,1607.46 1455.59,1569.2C1460.65,1548.61 1484.12,1513.69 1519.24,1513.69Z" style="fill:white;stroke:black;stroke-width:18.19px;stroke-linecap:round;stroke-miterlimit:1.5;"/>
        </g>
        <g transform="matrix(0.709584,0,0,0.62527,-154.27,205.835)">
            <ellipse cx="935.6" cy="2797.44" rx="218.781" ry="297.443" style="fill:white;stroke:black;stroke-width:24.92px;stroke-linecap:round;stroke-miterlimit:1.5;"/>
        </g>
        <g transform="matrix(-1.08966,0,0,1.08966,2147.09,-224.155)">
            <path d="M651.083,2270.25L652.416,2257.37L1279.85,2257.37L1306.18,2277.54L1307.48,2257.37L1659.37,2257.37L1659.37,2347.41L1641.13,2363.46L1659.37,2369.57L1659.37,2447.15L1433.86,2447.15L1430.53,2430.63L1411.76,2447.15L1156.1,2447.15L1130.9,2424.94L1127.22,2447.15L601.903,2447.15L580.102,2425.11L574.041,2447.15L516.761,2447.15L516.761,2307.44L530.924,2303.71L516.761,2289.39L516.761,2257.37L633.255,2257.37L651.083,2270.25Z" style="fill:white;stroke:black;stroke-width:15.3px;stroke-linecap:round;stroke-miterlimit:1.5;"/>
        </g>
        <g transform="matrix(1.08966,0,0,1.08966,-224.155,-224.155)">
            <path d="M1075.23,1702.76L1182.96,1702.76L1182.96,1984.53L1163.77,1987.69L1182.96,2009.03L1182.96,2447.15L993.172,2447.15L993.172,2191.44L1020.73,2167.46L993.172,2155.07L993.172,1702.76L1046.39,1702.76L1067.77,1723.68L1075.23,1702.76Z" style="fill:white;stroke:black;stroke-width:15.3px;stroke-linecap:round;stroke-miterlimit:1.5;"/>
        </g>
        <path d="M141.161,1736.74C96.095,1636.09 76.565,1519.52 115.409,1393.55C121.347,1451.52 132.15,1501.08 146.371,1543.43L153.597,1563.6C192.658,1665.85 252.46,1722.47 308.88,1753.73L311.383,1768.55L323.682,1761.41C396.43,1796.66 459.766,1791.62 459.766,1791.62C544.969,1791.62 614.143,1860.8 614.143,1946C614.143,2031.2 544.969,2100.38 459.766,2100.38C459.766,2100.38 387.394,2053.1 307.089,1971.33L313.613,1956.7L291.738,1955.37C240.398,1900.85 187.513,1832.81 149.461,1754.52L156.378,1737.63L141.161,1736.74Z" style="fill:white;stroke:black;stroke-width:16.67px;stroke-linecap:round;stroke-miterlimit:1.5;"/>
        <path d="M1558.75,1777.59C1574.31,1772.62 1590.93,1765.96 1607.94,1757.03C1611.5,1779.08 1624.17,1796.87 1657.02,1802.11C1670.25,1804.22 1653.7,1840.36 1668.64,1842.75C1675.71,1843.87 1691.08,1852.95 1699.56,1851.55C1705.3,1850.61 1713.08,1847.63 1719.98,1845.92C1705.26,1867.39 1689.76,1887.75 1673.97,1906.89L1662.63,1920.4C1638.06,1949.09 1613.08,1974.83 1589.49,1997.27L1571.98,1987.77L1573.11,2012.53C1511.56,2068.76 1463.17,2100.38 1463.17,2100.38C1377.97,2100.38 1308.79,2031.2 1308.79,1946C1308.79,1860.8 1377.97,1791.62 1463.17,1791.62C1463.17,1791.62 1495.51,1794.2 1540.51,1782.8L1551.87,1796.21L1558.75,1777.59Z" style="fill:white;stroke:black;stroke-width:16.67px;stroke-linecap:round;stroke-miterlimit:1.5;"/>
    </g>
</svg>
