<?xml version="1.0" encoding="UTF-8" standalone="no"?><!DOCTYPE svg PUBLIC "-//W3C//DTD SVG 1.1//EN" "http://www.w3.org/Graphics/SVG/1.1/DTD/svg11.dtd"><svg width="100%" height="100%" viewBox="0 0 869 402" version="1.1" xmlns="http://www.w3.org/2000/svg" xmlns:xlink="http://www.w3.org/1999/xlink" xml:space="preserve" xmlns:serif="http://www.serif.com/" style="fill-rule:evenodd;clip-rule:evenodd;stroke-linejoin:round;stroke-miterlimit:1.41421;"><path d="M88.378,375.078l0,-8.248l-1.805,-56.448l-2.835,-8.506l2.062,-10.826l2.578,-63.408l0.515,-17.527l-10.569,-1.804l-14.953,0.257l0,20.621l2.578,3.608l-2.578,7.991l0,22.167l-8.507,-13.919l-2.062,-1.031l-6.445,-10.31l-23.202,-31.962l-20.366,5.671l0,13.403l1.031,26.806l1.031,14.692l-1.031,53.613l2.32,5.156l-2.062,7.474l-1.547,36.602l0,4.381l0.774,2.32l-1.805,20.621l11.085,2.062l15.21,-0.516l0.516,-16.496l-0.773,-3.609l0.257,-26.806l-2.32,-9.795l1.289,-9.279l0.516,-58.768l-3.094,-3.351l-0.258,-0.515l3.61,-9.28l0,-13.918l6.702,9.279l10.57,14.692l7.476,9.021l3.609,5.671l3.61,3.866l4.124,6.96l0.258,26.806l0.773,4.897l-0.773,1.289l-0.258,24.745l0.258,24.486l-0.258,20.105l8.765,0.516l14.179,-0.258l3.352,-8.764l-1.547,-14.434Z" style="fill:#fff;fill-rule:nonzero;stroke:#000;stroke-width:3px;"/><path d="M159.014,207.793l-2.32,0.257l-9.538,0l-0.516,1.802l-1.547,7.722l-1.031,1.545l-13.921,34.75l1.289,2.831l-4.64,3.347l-13.921,33.72l-2.063,1.287l0.516,16.217l6.187,13.128l9.281,21.88l7.734,15.959l2.835,0l-0.773,4.376l9.023,22.394l0.258,8.495l23.459,0.257l0.516,-2.831l3.094,-8.237l13.921,-32.949l5.929,-12.355l0.258,-4.119l2.062,-2.574l12.632,-25.483l0.774,-14.158l-8.765,-19.048l-6.961,-15.445l-2.578,0l-1.289,-6.95l-13.148,-32.176l-5.156,-14.157l-11.601,0.515Zm0.516,157.019l-11.343,-29.602l-5.156,-10.554l-5.156,-3.604l2.578,-3.088l-2.32,-7.465l-3.352,-8.495l-0.257,-3.089l8.507,-22.137l-1.805,-4.118l3.61,-1.03l14.178,-37.324l1.547,4.891l5.93,15.702l4.64,2.831l-2.32,3.089l10.054,25.998l3.094,8.752l2.062,6.435l-12.632,30.889l0.258,4.634l0.257,0l-3.093,3.089l-8.25,27.027l-1.031,-2.831Z" style="fill:#fff;fill-rule:nonzero;stroke:#000;stroke-width:3px;"/><path d="M255.689,318.372l10.312,20.878l2.32,5.929l9.538,18.042l3.094,1.547l-0.258,4.382l9.023,20.62l6.187,10.053l20.882,-11.599l0.258,-7.475l-8.508,-9.022l-4.64,-9.794l0,0.257l-3.609,-7.474l-1.547,-0.774l0,-3.351l-10.312,-17.527c-1.805,-2.577 -3.351,-3.866 -5.414,-6.186l0,-4.382c-1.547,-3.093 -4.64,-7.475 -6.445,-11.083l7.219,-9.795l4.382,-5.413l8.25,-9.794l11.858,-14.435l1.805,-15.465l-12.374,-11.341c-0.258,0 -4.383,1.289 -4.641,1.031l-1.546,-6.444l-40.99,-35.571l-20.366,8.249l1.031,22.167l1.289,49.231l-2.062,5.155l0.515,13.403l1.031,30.158l0,10.052l2.32,3.351l-3.866,10.052l-1.547,40.983l17.014,1.547l10.312,-4.124l-0.258,-21.394l-0.773,-2.32l-0.773,-25.775l-0.258,-28.095l1.547,1.546Zm-1.031,-24.229l-1.032,-22.94l-0.515,-2.835l-0.516,-1.547l-1.031,-4.639l2.062,-4.898l0,-2.577l0.516,-19.847l23.717,23.455l1.805,1.289l5.156,6.444l-2.836,3.609c-3.351,4.639 -9.538,12.629 -13.148,17.011l-12.89,15.981l-1.804,1.031l0.516,-9.537Z" style="fill:#fff;fill-rule:nonzero;stroke:#000;stroke-width:3px;"/><path d="M378.143,208.568l-11.859,0.774c-3.609,0 -6.961,0 -10.828,-0.258c-2.062,0 -4.382,1.804 -5.929,1.804l-4.898,-2.062l-25.006,-1.288l-0.774,21.135l3.094,3.093l15.725,-0.515c0.774,0 2.321,-0.258 4.125,-0.773l1.289,-1.289l5.672,0.773l1.547,10.568l-1.032,16.496l1.547,12.115l-1.289,52.582l-1.289,36.343l2.32,2.578l-3.867,16.238l0,19.847l13.664,2.062l7.218,-1.288l7.476,-4.124l-2.062,-18.301l0,-48.458l-3.094,-4.897l0.258,-0.258l2.32,-15.465l-0.258,-19.847l0,-4.382c0,-1.804 -0.257,-4.124 -0.257,-6.186c-0.258,-1.547 -0.258,-7.991 -0.258,-10.31l0.515,-19.074l-1.031,-5.671l1.547,-10.826l7.992,0l7.734,0.516l2.578,0.773l11.6,0l0.774,-12.114l-1.547,-10.826l-23.717,0.515Z" style="fill:#fff;fill-rule:nonzero;stroke:#000;stroke-width:3px;"/><path d="M423,354.516l0.515,16.216l3.609,3.861l-4.124,4.891l-0.774,17.247l16.241,1.545l10.57,-0.516l0.258,-9.524l-0.773,-11.583l-1.547,-13.643l0.258,-0.772l1.289,-44.789l20.108,-8.495l0.258,0l14.952,-3.346l-0.258,4.633l0.773,3.604l-0.515,39.641l3.867,4.118l-2.578,2.317l-1.805,28.83l3.352,9.009l14.952,0l9.538,-0.515l-0.515,-14.157l-1.805,-6.435l-0.515,-32.949l-0.516,-46.076l-0.516,-5.148l-0.773,-11.583l1.289,-24.197l-2.32,-7.464l2.578,-3.347l0.258,-9.781l0,0.257l1.546,-14.672l0.774,-12.871l-14.695,-0.514l-9.538,-0.258l-3.867,7.465l1.289,10.296l0.515,23.167l0.774,23.424l-1.031,6.95l-2.836,1.287l-4.898,2.317l-10.57,4.633l-2.32,2.832l-4.125,-1.545l-10.827,3.862l-0.516,0.257l-2.32,-24.969l1.031,-16.989l-2.836,-2.316l3.094,-4.891l1.289,-15.702l1.031,-18.533l-22.171,-2.831l-6.187,4.118l1.805,15.959l-0.774,5.148l0.774,16.989l1.804,15.959l-1.031,25.226l1.805,29.088l-2.32,35.265Z" style="fill:#fff;fill-rule:nonzero;stroke:#000;stroke-width:3px;"/><path d="M574.327,230.478l-11.601,-23.456l-9.539,1.289l-11.085,0.773l0.258,14.434l0.258,2.578l2.32,3.351l0.258,1.288l-2.063,3.609l1.547,25.26l-0.258,23.198l4.125,2.835l-4.125,4.382l-1.546,70.882l0,11.857l2.32,6.186l0,-0.258l-3.352,9.795l2.063,9.795l24.233,-0.516l0,-11.083l-0.516,-37.89l-1.804,-36.601l1.804,-4.382l0,-35.57l-0.258,-0.258l0,-0.258l0.516,-17.269l5.414,10.568l1.804,4.124l1.031,2.062l6.188,12.114l6.96,0.258l9.281,-1.804l3.609,-9.279l3.351,-6.187l0,-2.577l4.383,-5.671l2.32,-4.124l1.031,9.537l-1.804,56.191l1.031,11.856l2.836,2.578l-3.094,4.639l0,27.58l-1.804,17.012l0.773,11.083l6.187,3.867l21.397,-1.031l-1.546,-16.239l-0.516,-8.248l-1.805,-14.176l1.289,-16.239l-2.062,-82.997l-2.578,-3.609l3.094,-5.928l1.804,-38.148l-6.96,-3.093l-12.632,-2.319l-13.406,22.424l2.062,4.382l-3.867,1.289l-8.249,14.95l-4.383,6.701l-0.257,-0.258l-14.437,-25.259Z" style="fill:#fff;fill-rule:nonzero;stroke:#000;stroke-width:3px;"/><path d="M725.396,344.995l2.063,8.494l2.32,1.545l-2.062,2.574l1.031,7.207l3.351,32.433l4.383,2.317l3.351,0l19.077,-6.178l-2.836,-11.068l-3.867,-4.119l1.547,-2.059l-2.578,-16.217l-6.445,-23.939l0,-3.603l-12.374,-62.036l-3.094,-2.317l1.805,-4.633l-8.25,-39.383l-1.031,-2.574l-0.773,-2.06l0.258,-9.009l-4.383,-2.059l-21.139,1.029l-2.578,16.217l-2.32,10.811l-1.805,10.297l2.836,3.861l-4.641,5.405l-7.734,34.493l0,4.633l-1.546,5.406l-0.774,4.891l-5.156,31.661l0.258,5.148l-2.836,2.832l-2.578,16.216l-6.96,31.404l9.023,5.663l15.983,1.545l2.836,-17.247l-1.805,-7.207l2.321,-2.832l2.835,-18.276l5.156,-2.059l2.32,-1.03l17.273,-4.118l5.156,-3.604l0.258,0l3.609,-0.515l0.515,2.06Zm-23.717,-58.947l-1.289,-4.118l2.578,-1.288l5.156,-31.403l3.867,27.285l1.031,4.633l1.031,13.386l5.156,27.8l-7.218,1.801l-16.757,5.149l0.258,-1.802l3.093,-16.732l-0.257,0.258l3.351,-24.969Z" style="fill:#fff;fill-rule:nonzero;stroke:#000;stroke-width:3px;"/><path d="M865.896,375.078l0,-8.248l-1.804,-56.448l-2.836,-8.506l2.062,-10.826l2.578,-63.408l0.516,-17.527l-10.57,-1.804l-14.952,0.257l0,20.621l2.578,3.608l-2.578,7.991l0,22.167l-8.507,-13.919l-2.063,-1.031l-6.445,-10.31l-23.202,-31.962l-20.366,5.671l0,13.403l1.032,26.806l1.031,14.692l-1.031,53.613l2.32,5.156l-2.063,7.474l-1.546,36.602l0,4.381l0.773,2.32l-1.805,20.621l11.086,2.062l15.21,-0.516l0.515,-16.496l-0.773,-3.609l0.258,-26.806l-2.32,-9.795l1.289,-9.279l0.515,-58.768l-3.093,-3.351l-0.258,-0.515l3.609,-9.28l0,-13.918l6.703,9.279l10.569,14.692l7.477,9.021l3.609,5.671l3.609,3.866l4.125,6.96l0.257,26.806l0.774,4.897l-0.774,1.289l-0.257,24.745l0.257,24.486l-0.257,20.105l8.765,0.516l14.179,-0.258l3.351,-8.764l-1.547,-14.434Z" style="fill:#fff;fill-rule:nonzero;stroke:#000;stroke-width:3px;"/><path d="M366.003,88.108l0.239,21.393l0.953,3.093l0.477,2.062l-1.43,40.725l-0.239,1.546l-8.103,-19.073l-3.813,0.515l-0.238,-7.99l-14.062,-25.002l-4.29,-7.475l3.099,-5.155l5.481,-11.341l9.295,-16.496l18.113,-27.579l-0.239,-3.609l8.342,-7.732l5.481,-10.052l-6.196,-6.188l-2.622,-2.063l-9.056,-5.671l-11.202,16.757l0.477,2.835l-12.631,16.496l-2.383,6.959l-18.113,29.9l-4.529,9.279l-1.191,1.804l-3.575,2.577l-0.477,19.074l11.44,18.816l7.15,10.567l5.481,11.341l0.239,0.258l11.678,22.682l8.341,13.661l2.86,6.186l3.098,6.702l22.641,-2.578l-0.238,-11.599l-2.145,-3.608l2.145,-1.547l1.192,-63.922l-0.715,-1.546l2.86,-18.301l-2.86,-7.732l-20.735,1.031Z" style="fill:#fff;fill-rule:nonzero;stroke:#000;stroke-width:3px;"/><path d="M494.461,172.392l0,-8.248l-1.668,-56.449l-2.621,-8.506l1.906,-10.825l2.383,-63.408l0.477,-17.527l-9.771,-1.805l-13.823,0.258l0,20.621l2.383,3.608l-2.383,7.991l0,22.166l-7.865,-13.918l-1.907,-1.031l-5.958,-10.31l-21.449,-31.962l-18.828,5.671l0,13.403l0.953,26.806l0.954,14.692l-0.954,53.613l2.145,5.155l-1.906,7.475l-1.43,36.601l0,4.382l0.715,2.32l-1.669,20.62l10.248,2.062l14.062,-0.515l0.476,-16.496l-0.715,-3.609l0.239,-26.806l-2.145,-9.795l1.191,-9.279l0.477,-58.768l-2.86,-3.351l-0.238,-0.516l3.336,-9.279l0,-13.919l6.197,9.28l9.771,14.692l6.912,9.021l3.336,5.671l3.337,3.866l3.813,6.959l0.238,26.807l0.715,4.897l-0.715,1.289l-0.238,24.744l0.238,24.487l-0.238,20.105l8.103,0.515l13.108,-0.257l3.098,-8.764l-1.43,-14.434Z" style="fill:#fff;fill-rule:nonzero;stroke:#000;stroke-width:3px;"/><path d="M576.923,142.308l1.906,8.495l2.145,1.544l-1.907,2.574l0.954,7.208l3.098,32.433l4.052,2.317l3.098,0l17.636,-6.178l-2.622,-11.068l-3.574,-4.119l1.429,-2.059l-2.383,-16.217l-5.958,-23.939l0,-3.604l-11.44,-62.035l-2.86,-2.317l1.669,-4.633l-7.627,-39.384l-0.953,-2.574l-0.715,-2.059l0.238,-9.009l-4.051,-2.059l-19.543,1.029l-2.383,16.217l-2.145,10.811l-1.669,10.296l2.622,3.861l-4.29,5.406l-7.15,34.493l0,4.633l-1.43,5.406l-0.715,4.89l-4.766,31.662l0.238,5.148l-2.621,2.831l-2.384,16.217l-6.434,31.404l8.341,5.663l14.776,1.544l2.622,-17.246l-1.668,-7.207l2.144,-2.832l2.622,-18.276l4.767,-2.059l2.145,-1.03l15.967,-4.118l4.767,-3.604l0.238,0l3.337,-0.515l0.477,2.059Zm-21.927,-58.946l-1.191,-4.119l2.383,-1.287l4.767,-31.404l3.575,27.286l0.953,4.633l0.953,13.385l4.767,27.8l-6.673,1.802l-15.492,5.148l0.239,-1.801l2.86,-16.732l-0.239,0.257l3.098,-24.968Z" style="fill:#fff;fill-rule:nonzero;stroke:#000;stroke-width:3px;"/><path d="M651.281,115.686l9.533,20.878l2.145,5.928l8.818,18.043l2.86,1.547l-0.239,4.382l8.342,20.62l5.72,10.052l19.304,-11.599l0.238,-7.474l-7.864,-9.022l-4.29,-9.795l0,0.258l-3.337,-7.475l-1.43,-0.773l0,-3.351l-9.533,-17.527c-1.668,-2.578 -3.098,-3.866 -5.005,-6.186l0,-4.382c-1.43,-3.093 -4.29,-7.475 -5.958,-11.083l6.673,-9.795l4.052,-5.413l7.626,-9.795l10.963,-14.434l1.669,-15.465l-11.44,-11.341c-0.239,0 -4.052,1.288 -4.29,1.031l-1.43,-6.444l-37.894,-35.571l-18.828,8.249l0.953,22.167l1.192,49.231l-1.907,5.155l0.477,13.403l0.953,30.157l0,10.053l2.145,3.351l-3.575,10.052l-1.429,40.983l15.729,1.547l9.533,-4.124l-0.238,-21.394l-0.715,-2.32l-0.715,-25.775l-0.238,-28.096l1.43,1.547Zm-0.954,-24.229l-0.953,-22.94l-0.477,-2.835l-0.476,-1.547l-0.954,-4.64l1.907,-4.897l0,-2.577l0.477,-19.848l21.926,23.456l1.668,1.289l4.766,6.444l-2.621,3.608c-3.098,4.64 -8.818,12.63 -12.155,17.012l-11.916,15.981l-1.668,1.031l0.476,-9.537Z" style="fill:#fff;fill-rule:nonzero;stroke:#000;stroke-width:3px;"/><path d="M767.107,171.876l-18.112,0.516l0,-7.475l-0.954,-18.043l0.239,-0.258l-0.715,-17.785l-0.477,-15.723l-2.86,-3.351l2.622,-4.381l0,-12.63l1.43,-28.353l0.715,-28.869l0.953,-8.764l0.477,-16.754l-6.197,-5.928l-7.865,2.062l-12.393,0l1.669,28.095l3.813,1.289l-3.098,4.382l0.476,84.028l-1.668,42.529l2.145,6.444l-3.098,4.64l0.476,17.527l10.725,0.516l10.486,-2.062l2.145,1.546l10.248,0l3.337,-0.258l18.113,1.289l3.575,-4.897l0.953,-16.239l-0.715,-5.413l-11.201,0.516l-5.244,1.804Z" style="fill:#fff;fill-rule:nonzero;stroke:#000;stroke-width:3px;"/><path d="M827.404,195.847l6.912,-5.155l-1.669,-16.754l0.239,-11.083l-0.954,-4.382l0.954,-18.558l-2.86,-2.578l2.621,-7.733l-0.238,-7.474l0.715,-2.836l-0.238,-7.475l6.911,-20.878l9.295,-29.384l3.575,-11.341l3.575,-7.99l1.668,-3.609l-2.622,-2.32l5.482,-2.577l6.673,-18.559l-7.388,-5.67l-5.005,-1.804l-10.725,-3.351l-2.145,12.63l-2.86,7.475l-4.051,17.527l-3.575,8.506l-3.575,15.207l-4.29,16.239l-0.953,1.289l-2.622,-9.28l-2.621,-4.124l0.715,-2.062l-1.907,-9.279l-4.528,-10.052l-5.005,-19.332l-1.907,-6.186l0,-4.382l-4.766,-13.919l-7.865,2.063l-13.108,4.381l-0.477,8.248l5.482,10.568l4.528,2.062l-1.43,8.249l4.052,11.856l3.336,8.764l0,-0.258l9.295,25.518l5.005,15.723l2.383,12.372l-0.476,11.084l0.953,33.25l2.383,3.351l-2.86,6.186l-1.668,12.63l-0.477,14.692l18.113,0.515Z" style="fill:#fff;fill-rule:nonzero;stroke:#000;stroke-width:3px;"/><path d="M126.349,52.342c9.664,-0.491 19.868,-0.332 30.402,-0.332l0.353,0c13.683,0.008 26.803,-0.244 38.901,1.025l1.773,3.961l2.95,-3.378c30.754,4.42 54.193,20.705 62.259,80.161l-3.15,3.184l3.679,0.969c1.707,14.256 2.577,30.875 2.508,50.247l-218.546,0c-0.063,-17.847 0.67,-33.359 2.12,-46.84l4.618,-4.108l-4.028,-0.951c5.833,-46.342 20.702,-67.248 41.014,-76.655l4.773,-1.969c7.522,-2.75 15.699,-4.178 24.369,-4.912l4.345,4.252l1.66,-4.654Z" style="fill:#fff;stroke:#000;stroke-width:3px;stroke-linecap:round;stroke-miterlimit:1.5;"/><ellipse cx="238.869" cy="102.56" rx="27.944" ry="33.477" style="fill:#fff;stroke:#000;stroke-width:3px;stroke-linecap:round;stroke-miterlimit:1.5;"/><path d="M288.647,69.297c5.012,4.511 8.991,7.99 5.631,13.303c-2.785,4.404 -12.558,4.679 -17.569,0.168c-5.012,-4.511 -6.799,-13.618 -2.066,-16.18c2.547,-1.379 8.993,-1.802 14.004,2.709Z" style="fill:#fff;stroke:#000;stroke-width:3px;stroke-linecap:round;stroke-miterlimit:1.5;"/><ellipse cx="76.202" cy="102.56" rx="27.944" ry="33.477" style="fill:#fff;stroke:#000;stroke-width:3px;stroke-linecap:round;stroke-miterlimit:1.5;"/><path d="M243.245,155.598l-0.262,-2.526l-123.064,0l-5.164,3.956l-0.256,-3.956l-69.018,0l0,17.66l3.576,3.148l-3.576,1.198l0,15.218l44.23,0l0.654,-3.24l3.682,3.24l50.145,0l4.943,-4.358l0.721,4.358l103.035,0l4.276,-4.323l1.189,4.323l11.235,0l0,-27.404l-2.778,-0.731l2.778,-2.809l0,-6.28l-22.849,0l-3.497,2.526Z" style="fill:#fff;stroke:#000;stroke-width:3px;stroke-linecap:round;stroke-miterlimit:1.5;"/><path d="M155.018,44.291l21.13,0l0,55.266l-3.764,0.619l3.764,4.187l0,85.933l-37.224,0l0,-50.155l5.405,-4.705l-5.405,-2.43l0,-88.715l10.438,0l4.193,4.104l1.463,-4.104Z" style="fill:#fff;stroke:#000;stroke-width:3px;stroke-linecap:round;stroke-miterlimit:1.5;"/><path d="M9.88,63.274c-8.111,-18.116 -11.627,-39.099 -4.635,-61.774c1.069,10.435 3.014,19.355 5.573,26.979l1.301,3.629c7.031,18.406 17.795,28.597 27.951,34.225l0.451,2.668l2.213,-1.286c13.095,6.346 24.495,5.439 24.495,5.439c15.337,0 27.788,12.451 27.788,27.787c0,15.337 -12.451,27.788 -27.788,27.788c0,0 -13.027,-8.51 -27.482,-23.228l1.175,-2.633l-3.938,-0.239c-9.241,-9.815 -18.76,-22.062 -25.61,-36.155l1.246,-3.039l-2.74,-0.161Z" style="fill:#fff;stroke:#000;stroke-width:3px;stroke-linecap:round;stroke-miterlimit:1.5;"/><path d="M265.047,70.627c2.8,-0.894 5.791,-2.094 8.853,-3.7c0.641,3.968 2.923,7.171 8.835,8.113c2.381,0.38 -0.597,6.887 2.092,7.315c1.272,0.203 4.039,1.838 5.565,1.586c1.033,-0.171 2.434,-0.706 3.675,-1.014c-2.65,3.865 -5.439,7.529 -8.28,10.975l-2.043,2.431c-4.422,5.164 -8.919,9.798 -13.165,13.837l-3.151,-1.711l0.204,4.458c-11.08,10.122 -19.79,15.812 -19.79,15.812c-15.337,0 -27.788,-12.451 -27.788,-27.788c0,-15.336 12.451,-27.787 27.788,-27.787c0,0 5.821,0.463 13.922,-1.588l2.043,2.413l1.24,-3.352Z" style="fill:#fff;stroke:#000;stroke-width:3px;stroke-linecap:round;stroke-miterlimit:1.5;"/></svg>